<svg width="14" height="14" viewBox="0 0 14 14" fill="none" xmlns="http://www.w3.org/2000/svg">
<path d="M13.2857 8.83663C11.3951 9.58665 9.32839 9.99966 7.16328 9.99966C4.99818 9.99966 2.93151 9.58665 1.04083 8.83663M9.88437 3.99967V2.66634C9.88437 1.92996 9.27523 1.33301 8.52383 1.33301H5.80274C5.05133 1.33301 4.44219 1.92996 4.44219 2.66634V3.99967M7.16328 7.99967H7.17008M2.40138 13.333H11.9252C12.6766 13.333 13.2857 12.7361 13.2857 11.9997V5.33301C13.2857 4.59663 12.6766 3.99967 11.9252 3.99967H2.40138C1.64997 3.99967 1.04083 4.59663 1.04083 5.33301V11.9997C1.04083 12.7361 1.64997 13.333 2.40138 13.333Z" stroke="#3D1852" stroke-linecap="round" stroke-linejoin="round"/>
</svg>
