<svg xmlns="http://www.w3.org/2000/svg" width="12" height="12" viewBox="0 0 12 12" fill="none">
    <path d="M6 0.5C7.19347 0.5 8.33807 0.974106 9.18198 1.81802C10.0259 2.66193 10.5 3.80653 10.5 5C10.5 6.863 9.08 8.815 6.3 10.9C6.21345 10.9649 6.10819 11 6 11C5.89181 11 5.78655 10.9649 5.7 10.9C2.92 8.815 1.5 6.863 1.5 5C1.5 3.80653 1.97411 2.66193 2.81802 1.81802C3.66193 0.974106 4.80653 0.5 6 0.5ZM6 3.5C5.60218 3.5 5.22064 3.65804 4.93934 3.93934C4.65804 4.22064 4.5 4.60218 4.5 5C4.5 5.39782 4.65804 5.77936 4.93934 6.06066C5.22064 6.34196 5.60218 6.5 6 6.5C6.39782 6.5 6.77936 6.34196 7.06066 6.06066C7.34196 5.77936 7.5 5.39782 7.5 5C7.5 4.60218 7.34196 4.22064 7.06066 3.93934C6.77936 3.65804 6.39782 3.5 6 3.5Z" fill="#FF0000"/>
</svg>