<svg width="24" height="24" viewBox="0 0 24 24" fill="none" xmlns="http://www.w3.org/2000/svg">
<path d="M16.8001 12.6H7.2001C6.8721 12.6 6.6001 12.328 6.6001 12C6.6001 11.672 6.8721 11.4 7.2001 11.4H16.8001C17.1281 11.4 17.4001 11.672 17.4001 12C17.4001 12.328 17.1281 12.6 16.8001 12.6Z" fill="white"/>
<path d="M11.9999 17.4C11.6719 17.4 11.3999 17.128 11.3999 16.8V7.20004C11.3999 6.87204 11.6719 6.60004 11.9999 6.60004C12.3279 6.60004 12.5999 6.87204 12.5999 7.20004V16.8C12.5999 17.128 12.3279 17.4 11.9999 17.4Z" fill="white"/>
<circle cx="12" cy="12" r="11" stroke="white" stroke-width="2"/>
</svg>
