<svg width="32" height="32" viewBox="0 0 32 32" fill="none" xmlns="http://www.w3.org/2000/svg">
<path d="M12.0001 22.6667H5.33342L7.20666 20.7934C7.71468 20.2854 8.00008 19.5964 8.00008 18.8779V14.6667C8.00008 11.1834 10.2262 8.22012 13.3334 7.12189V6.66667C13.3334 5.19391 14.5273 4 16.0001 4C17.4728 4 18.6667 5.19391 18.6667 6.66667V7.12189C21.7739 8.22012 24.0001 11.1834 24.0001 14.6667V18.8779C24.0001 19.5964 24.2855 20.2854 24.7935 20.7934L26.6667 22.6667H20.0001M12.0001 22.6667V24C12.0001 26.2091 13.7909 28 16.0001 28C18.2092 28 20.0001 26.2091 20.0001 24V22.6667M12.0001 22.6667H20.0001" stroke="#333333" stroke-width="2" stroke-linecap="round" stroke-linejoin="round"/>
</svg>
