<svg width="244" height="141" viewBox="0 0 244 141" fill="none" xmlns="http://www.w3.org/2000/svg">
<path d="M79.3688 110.157C81.3254 108.572 83.282 106.987 85.4496 105.231C85.4496 110.24 85.4496 115.078 85.4496 120.205C83.4024 118.491 81.5548 116.945 79.4279 115.212C76.7742 114.105 74.4555 112.808 71.7782 113.928C71.7099 120.861 71.5735 127.795 71.6509 134.726C71.6618 135.702 72.7175 136.667 73.6265 137.842C77.8072 138.11 81.666 137.989 85.4899 138.3C88.4291 138.538 89.8278 137.286 90.3879 134.626C91.0507 133.296 91.7119 131.965 92.3765 130.635C93.3661 128.656 94.8596 127.82 97.3253 128.745C97.5136 129.398 97.5062 129.913 97.3272 130.358C96.2766 132.975 96.0148 135.589 97.035 138.648C98.0815 137.942 98.8156 137.446 99.7013 136.844C100.965 135.33 102.512 134.088 103.117 132.488C106.636 123.177 109.934 113.782 113.416 104.277C114.87 100.326 116.215 96.514 117.559 92.702C117.949 91.6902 118.244 90.6256 118.763 89.6853C119.108 89.0616 119.845 88.1363 120.279 88.2012C120.957 88.3026 121.831 89.0068 122.095 89.667C124.39 95.4051 126.564 101.192 128.782 106.961C131.93 115.148 134.998 123.368 138.301 131.491C139.123 133.512 140.719 135.216 142.205 137.279C144.321 138.952 146.321 139.378 148.506 138.242C150.687 137.109 150.669 135.04 150.67 133.006C150.678 120.588 150.656 108.17 150.685 95.7519C150.694 91.8866 150.205 89.91 145.808 89.2815C145.571 89.2476 145.368 88.9787 145.149 88.8192C145.182 88.6324 145.216 88.4456 145.249 88.2587C151.002 88.2587 156.756 88.2587 162.509 88.2587C167.448 89.0422 172.444 89.5841 177.301 90.7189C179.472 91.2262 181.609 92.6415 183.341 94.1347C188.386 98.4837 187.877 105.911 182.127 109.285C178.82 111.224 174.99 112.268 171.518 113.666C172.553 113.868 173.954 114.117 175.343 114.417C181.07 115.653 183.811 118.641 184.616 124.463C185.134 128.205 185.664 131.945 186.215 135.682C186.666 138.747 187.493 139.079 190.195 137.488C190.678 137.203 191.429 137.375 192.339 137.319C189.741 141.323 184.675 142.124 179.789 139.41C178.536 137.13 177.207 135.163 176.602 132.993C175.821 130.196 175.6 127.24 175.172 124.347C174.038 116.683 171.231 114.284 163.492 114.396C162.249 114.321 161.007 114.245 159.467 114.152C159.467 119.321 159.467 124.325 159.467 129.33C159.467 130.252 159.467 131.175 159.467 132.098C159.467 137.373 159.468 137.37 164.467 139.087C164.654 139.151 164.788 139.367 165.189 139.733C164.464 139.832 164.009 139.947 163.554 139.947C151.583 139.957 139.612 139.96 127.641 139.94C127.186 139.939 126.732 139.709 126.44 139.352C130.801 137.89 131.207 137.071 129.671 132.894C129.356 132.038 129.011 131.192 128.684 130.339C126.567 124.809 126.568 124.809 120.634 125.233C116.697 125.233 112.761 125.233 108.707 125.233C107.685 127.968 106.583 130.683 105.662 133.458C104.892 135.777 105.826 137.555 108.099 138.517C108.751 138.794 109.426 139.019 110.032 139.718C109.505 139.797 108.979 139.944 108.452 139.944C92.1673 139.957 75.8823 139.96 59.5973 139.94C58.796 139.939 57.9949 139.711 57.351 139.346C62.4938 137.835 62.7074 137.554 62.7074 132.247C62.7075 119.677 62.7127 107.106 62.7038 94.536C62.7015 91.3558 61.9216 90.4018 58.9258 89.573C58.2601 89.3888 57.6668 88.9418 57.0401 88.6158C57.139 88.5529 57.2378 88.49 57.6762 88.4155C63.4698 88.4209 68.9239 88.4705 74.3777 88.4461C80.0738 88.4206 85.7696 88.324 91.4656 88.2586C93.6058 88.3533 95.746 88.448 98.0087 88.5482C95.3982 92.1895 96.2285 95.6007 97.9053 99.0606C95.4223 100.683 93.9939 100.399 92.4564 97.8404C91.8547 96.8391 91.3494 95.7796 90.6877 94.4644C89.9024 92.3473 89.6474 90.1032 87.0547 89.9481C85.6588 89.8646 84.2468 90.0526 82.842 90.1181C80.6725 90.0681 78.5031 89.985 76.3334 89.9754C72.434 89.9581 71.5707 90.7902 71.5543 94.6229C71.5331 99.5665 71.5598 104.51 71.5269 109.828C71.2995 111.407 71.6321 112.248 73.0238 111.911C75.1553 111.395 77.2554 110.748 79.3688 110.157ZM163.547 90.0359C162.24 90.0359 160.932 90.0359 159.634 90.0359C159.556 90.4937 159.478 90.7369 159.478 90.9798C159.493 97.7856 159.516 104.591 159.473 111.815C159.801 112.09 160.157 112.629 160.454 112.598C163.753 112.254 167.137 112.172 170.311 111.319C173.742 110.398 175.897 107.798 176.639 104.191C178.374 95.7543 173.161 89.9777 163.547 90.0359ZM114.58 119.757C115.512 120.553 116.445 121.349 117.682 122.406C119.351 120.586 121.035 119.059 122.283 117.233C122.765 116.527 122.621 114.491 122.119 114.209C121.217 113.701 119.812 113.944 118.653 114.115C118.2 114.182 117.843 114.9 117.437 115.327C117.1 115.008 116.809 114.709 116.494 114.438C115.378 113.477 114.212 112.958 112.941 114.169C111.717 115.335 111.944 116.537 112.907 117.736C113.379 118.323 113.85 118.912 114.58 119.757ZM114.48 109.033C114.119 110.052 113.757 111.072 113.164 112.747C116.193 112.747 118.852 112.747 121.918 112.747C120.318 108.559 118.931 104.93 117.382 100.876C116.343 103.766 115.467 106.204 114.48 109.033ZM121.399 120.459C120.284 121.402 119.169 122.346 117.896 123.424C120.668 123.424 123.174 123.424 125.964 123.424C125.205 121.421 124.544 119.675 123.785 117.673C122.91 118.709 122.28 119.456 121.399 120.459ZM110.058 123.581C112.265 123.581 114.472 123.581 115.907 123.581C114.462 122.054 112.774 120.271 111.018 118.417C110.628 119.834 110.137 121.621 110.058 123.581Z" fill="#421D57"/>
<path d="M38.0236 2.84752C38.2388 2.48313 38.4643 1.79416 38.6674 1.80071C50.9744 2.19749 63.3571 0.585225 75.582 2.96664C79.5403 3.73772 83.293 5.21659 86.3753 8.03835C92.3114 13.4726 91.9174 21.4582 85.0487 25.7053C81.4136 27.953 77.179 29.2276 73.3894 30.8661C74.0686 31.0212 75.3398 31.1624 76.4981 31.602C81.2448 33.4035 86.3007 34.713 90.6159 37.2669C102.3 44.1823 103.734 59.7752 93.8591 69.136C89.8438 72.9421 85.1333 75.625 79.3989 77.2139C65.3542 80.6268 51.4681 78.9282 37.6585 79.0755C38.4792 78.585 39.2999 78.0946 40.4916 77.5704C44.7138 76.5887 46.1325 74.9801 46.1355 71.335C46.1521 50.7468 46.1525 30.1585 46.1337 9.57028C46.1308 6.35006 44.7295 4.56074 41.6821 3.71238C40.4758 3.37652 39.2439 3.13305 38.0236 2.84752ZM75.3024 74.042C75.3024 74.042 75.2822 74.0128 75.6373 74.0211C77.364 72.5844 79.4755 71.4273 80.7521 69.6636C86.979 61.0613 87.529 51.7272 82.8767 42.3665C78.4347 33.4287 70.2257 31.3824 61.0428 31.6783C59.6022 31.7248 59.3056 32.3435 59.4635 34.0391C59.4635 48.2698 59.4635 62.5006 59.4635 76.9278C64.7444 77.0674 69.7286 77.2156 74.6139 74.5801C74.8353 74.3918 75.0567 74.2034 75.3024 74.042ZM59.4619 6.34337C59.4619 13.9294 59.4619 21.5154 59.4619 29.2905C63.3072 29.3289 66.8722 29.7372 70.5688 28.0348C77.7976 24.5332 79.7397 13.7702 74.2195 7.90286C70.3909 3.83363 65.4046 3.96893 60.4444 4.13327C60.1317 4.14363 59.8558 5.27137 59.4619 6.34337Z" fill="#3F1A55"/>
<path d="M143.377 16.4901C148.726 8.11158 155.935 2.21619 165.919 0.628405C175.692 -0.925971 185.102 0.100233 192.797 7.16421C197.224 11.2283 199.631 16.3158 198.219 22.5334C196.975 28.0111 191.878 30.9577 186.957 29.0877C184.675 28.2208 182.866 26.7755 182.625 24.0764C186.952 20.9344 187.604 19.1269 186.37 13.7851C183.858 2.90763 173.067 -1.08627 163.779 5.40092C159.599 8.32104 156.956 12.3899 155.589 17.1612C151.089 32.8707 151.107 48.663 155.455 64.4C156.702 68.9153 159.038 72.9395 162.82 75.8738C170.26 81.6469 179.663 79.8726 183.896 71.4705C185.814 67.6641 186.501 63.2261 187.659 59.0503C187.946 58.0148 187.892 56.8844 188.065 55.4266C188.12 54.8112 188.103 54.5667 188.087 54.3222C188.118 51.6354 188.149 48.9486 188.208 45.8161C187.714 44.8578 187.218 43.9384 186.665 43.9025C184.182 43.7414 181.68 43.7573 179.191 43.8606C177.864 43.9158 177.405 43.3544 177.396 42.1623C177.811 41.597 178.22 40.5444 178.643 40.5388C186.153 40.439 193.664 40.4664 201.353 40.4664C201.326 48.4232 202.246 56.216 198.714 63.8838C197.933 65.4447 197.329 66.7025 196.725 67.9604C196.725 67.9604 196.753 67.9817 196.584 68.0157C196.177 68.5191 195.938 68.9886 195.699 69.4581C195.699 69.4581 195.743 69.4977 195.559 69.5199C182.037 86.5253 157.924 83.2014 146.607 68.9248C138.678 58.9216 136.771 47.1788 138.163 34.9171C138.795 29.346 140.85 23.9369 142.259 18.4544C142.259 18.4544 142.313 18.4589 142.432 18.3883C142.637 18.0362 142.721 17.7546 142.806 17.473C142.806 17.473 142.833 17.488 142.964 17.4192C143.19 17.0637 143.283 16.7769 143.377 16.4901Z" fill="#401C56"/>
<path d="M102.999 2.90027C102.254 1.05157 103.819 1.79286 104.388 1.78641C109.501 1.72836 114.616 1.75235 119.73 1.7524C123.252 1.75243 126.773 1.74291 130.294 1.76035C131.068 1.7642 131.841 1.86421 132.615 1.91992C132.65 2.14969 132.686 2.37943 132.721 2.60918C131.447 3.01661 130.188 3.48237 128.896 3.81991C125.704 4.65375 124.212 6.25721 124.207 9.42301C124.171 30.1722 124.171 50.9215 124.21 71.6708C124.216 74.7506 126.032 76.7716 129.117 77.5048C130.295 77.7849 131.489 78.0016 132.675 78.2472C132.683 78.4871 132.691 78.7269 132.698 78.9668C132.164 79.098 131.63 79.2291 130.732 79.2823C129.536 79.2049 128.702 79.2095 127.869 79.2053C119.449 79.1628 111.03 79.1189 102.61 79.0754C103.181 78.6707 103.703 78.1409 104.336 77.889C105.453 77.4439 106.638 77.1682 108.096 76.6882C110.599 75.2104 111.103 73.1219 111.097 70.714C111.065 58.9463 111.083 47.1785 111.083 35.4108C111.083 26.9212 111.1 18.4316 111.074 9.94211C111.063 6.41397 109.554 4.49459 106.174 3.58877C105.129 3.30878 104.058 3.12701 102.999 2.90027Z" fill="#3E1954"/>
<path d="M47.1186 88.2552C48.149 88.2966 49.1794 88.3379 50.5406 88.3971C51.7775 88.6639 52.6834 88.9129 53.4034 89.1974C48.7304 90.3837 48.0512 90.9286 48.0421 94.0862C48.0033 107.502 48.0258 120.918 48.0275 134.334C48.0278 136.496 48.8492 138.058 51.2964 138.61C52.1857 138.843 52.902 139.012 53.6182 139.182C53.2818 139.439 52.9469 139.92 52.6089 139.922C46.5016 139.962 40.3938 139.948 34.2863 139.923C34.0733 139.922 33.8612 139.698 33.7912 139.359C39.0949 137.731 39.0947 137.731 39.0945 132.313C39.0943 126.874 39.099 121.436 39.0894 115.998C39.0879 115.205 39.0186 114.412 38.9812 113.628C36.7662 113.628 34.8572 113.628 32.9482 113.628C29.0291 113.628 25.1101 113.628 20.8086 113.628C20.8086 115.449 20.8086 117.254 20.8086 119.059C20.8086 123.838 20.8072 128.617 20.8091 133.397C20.8107 137.365 21.1873 137.836 25.1033 138.881C25.5492 139 25.9699 139.213 27.0564 139.64C25.8282 139.811 25.2959 139.948 24.7633 139.95C19.1564 139.966 13.5493 139.97 7.9425 139.943C7.40584 139.941 6.87028 139.707 6.4908 139.336C11.6302 137.881 11.8798 137.569 11.8803 132.503C11.8814 120.574 11.8811 108.645 11.8811 96.7157C11.8811 90.9618 11.8804 90.9633 6.5659 89.126C6.48394 89.0977 6.47347 88.8617 6.2821 88.2545C10.9148 88.2545 15.395 88.2545 19.8752 88.2545C22.008 88.2545 24.1408 88.2545 26.405 88.2545C26.2311 88.8524 26.2245 89.0888 26.1456 89.1162C20.8076 90.9691 20.8057 90.9677 20.8085 96.5901C20.8108 101.204 20.8169 105.818 20.8281 110.887C21.4883 111.531 22.1387 111.87 22.7955 111.883C25.8166 111.941 28.8395 111.909 31.8618 111.909C34.2557 111.909 36.6496 111.909 39.101 111.909C39.101 106.977 39.1006 102.436 39.1011 97.895C39.1019 91.4174 39.1022 91.4174 33.7045 88.2552C38.1759 88.2552 42.6472 88.2552 47.1186 88.2552Z" fill="#432059"/>
<path d="M229.01 90.1428C226.754 90.1428 224.499 90.1428 221.959 90.1428C221.959 90.9913 221.959 91.8933 221.959 92.7953C221.959 106.159 221.959 119.522 221.959 132.886C221.959 137.334 222.308 137.791 226.572 138.956C226.872 139.038 227.164 139.15 227.861 139.381C227.249 139.7 227.012 139.932 226.773 139.932C220.65 139.955 214.527 139.959 208.403 139.94C208.106 139.939 207.808 139.708 207.667 139.374C212.996 137.737 213.154 137.526 213.154 132.086C213.154 118.975 213.154 105.864 213.154 92.7535C213.154 91.8687 213.154 90.9839 213.154 90.1124C210.765 90.1124 208.772 90.1124 206.778 90.1124C200.533 89.4879 200.537 89.4897 197.999 95.1448C197.587 96.0612 197.184 96.9902 196.672 97.8508C195.234 100.271 193.936 100.574 191.209 99.1685C192.738 95.6996 193.866 92.2046 191.011 88.5661C208.666 88.5661 226.261 88.5661 244 88.5661C241.788 91.4038 241.844 95.5758 243.99 98.9632C241.211 100.834 240.09 100.512 237.952 97.1232C237.853 96.9864 237.841 96.9799 237.784 96.8268C237.327 95.864 236.927 95.0542 236.53 94.0606C234.773 89.9174 234.773 89.9131 230.481 89.9908C229.99 89.9997 229.5 90.0902 229.01 90.1428Z" fill="#44215A"/>
<path d="M162.367 88.0986C156.756 88.2586 151.003 88.2586 145.249 88.2586C145.216 88.4455 145.182 88.6323 145.149 88.8191C145.368 88.9786 145.572 89.2475 145.808 89.2814C150.205 89.9099 150.694 91.8865 150.685 95.7518C150.657 108.17 150.678 120.588 150.67 133.006C150.669 135.04 150.687 137.108 148.506 138.242C146.321 139.378 144.321 138.952 142.364 137.341C142.967 135.76 144.239 134.339 144.257 132.902C144.412 119.954 144.321 107.002 144.365 94.0519C144.377 90.4211 142.278 88.8688 139.105 87.9386C146.812 87.9386 154.518 87.9386 162.367 88.0986Z" fill="#E2D7F5"/>
<path d="M37.8919 3.00806C39.2439 3.13302 40.4758 3.3765 41.6821 3.71235C44.7294 4.56072 46.1308 6.35004 46.1337 9.57026C46.1525 30.1585 46.1521 50.7467 46.1355 71.335C46.1325 74.9801 44.7138 76.5886 40.6726 77.5038C40.8442 75.4433 41.5116 73.4167 41.5197 71.3873C41.5988 51.7277 41.5677 32.0677 41.5669 12.4078C41.5667 7.58556 40.2687 5.9795 35.5739 4.96453C34.8503 4.8081 34.1298 4.63253 33.4187 4.42813C33.301 4.39429 33.239 4.16554 32.8881 3.61072C34.6523 3.45062 36.2062 3.30961 37.8919 3.00806Z" fill="#C1B3DD"/>
<path d="M19.7416 88.0872C15.395 88.2544 10.9147 88.2544 6.28207 88.2544C6.47344 88.8617 6.48391 89.0977 6.56587 89.126C11.8803 90.9632 11.8811 90.9618 11.8811 96.7157C11.8811 108.645 11.8814 120.574 11.8802 132.503C11.8797 137.569 11.6301 137.881 6.46219 139.135C4.23646 139.18 2.19588 139.18 0 139.18C0.229123 138.708 0.263879 138.481 0.36967 138.441C5.26587 136.566 5.26712 136.568 5.26728 131.416C5.26765 118.986 5.26794 106.557 5.26727 94.1284C5.26705 89.9055 4.93762 89.5115 0.765685 88.6554C0.490564 88.599 0.237781 88.4332 0.0341335 87.9199C6.55876 87.9199 13.0834 87.9199 19.7416 88.0872Z" fill="#E9DFFB"/>
<path d="M53.8379 139.178C52.902 139.013 52.1858 138.843 51.4369 138.498C55.6272 137.439 56.1637 136.779 56.1638 132.448C56.1642 119.463 56.1421 106.477 56.1856 93.4921C56.1925 91.4376 55.6831 89.8679 53.5894 89.162C52.6835 88.913 51.7775 88.664 50.7305 88.3407C52.6527 88.2937 54.716 88.3209 56.9097 88.482C57.6668 88.9418 58.2602 89.3889 58.9259 89.573C61.9217 90.4018 62.7016 91.3558 62.7039 94.536C62.7128 107.106 62.7076 119.677 62.7075 132.247C62.7075 137.554 62.4939 137.835 57.3182 139.137C56.1045 139.172 55.0811 139.173 53.8379 139.178Z" fill="#E5DAF7"/>
<path d="M206.797 90.3205C208.772 90.1124 210.765 90.1124 213.154 90.1124C213.154 90.984 213.154 91.8688 213.154 92.7536C213.154 105.864 213.154 118.975 213.154 132.086C213.154 137.526 212.996 137.737 207.634 139.186C205.494 139.21 203.543 139.21 201.592 139.21C201.578 138.982 201.564 138.755 201.55 138.527C202.046 138.362 202.539 138.191 203.037 138.033C205.849 137.143 206.83 135.856 206.831 132.899C206.835 118.776 206.823 104.652 206.797 90.3205Z" fill="#E3D8F5"/>
<path d="M142.09 18.4885C140.85 23.9369 138.795 29.3459 138.163 34.9171C136.771 47.1787 138.678 58.9216 146.607 68.9247C157.924 83.2013 182.037 86.5252 195.539 69.4988C194.697 71.0211 193.937 72.8362 192.647 74.1122C183.869 82.7882 169.357 85.1342 157.842 80.03C144.142 73.9574 137.958 62.8384 136.255 48.5106C135.225 39.8419 136.138 31.4603 139.341 23.3556C140.008 21.668 141.051 20.1297 142.09 18.4885Z" fill="#BEAFDA"/>
<path d="M102.867 3.03864C104.058 3.12708 105.13 3.30885 106.174 3.58884C109.554 4.49466 111.063 6.41404 111.074 9.94217C111.1 18.4317 111.083 26.9213 111.083 35.4109C111.083 47.1786 111.065 58.9464 111.097 70.714C111.103 73.122 110.599 75.2104 108.219 76.5506C108.205 68.4178 108.463 60.29 108.513 52.1609C108.592 39.1386 108.535 26.1155 108.534 13.0927C108.534 7.62214 107.192 6.00105 101.794 4.89244C101.069 4.74368 100.366 4.49395 99.6522 4.29096C99.6717 4.06259 99.6912 3.83421 99.7107 3.60584C100.719 3.46287 101.727 3.31989 102.867 3.03864Z" fill="#C0B1DD"/>
<path d="M99.5497 136.951C98.8156 137.446 98.0814 137.942 97.0349 138.648C96.0148 135.589 96.2765 132.975 97.3272 130.358C97.5062 129.913 97.5135 129.398 97.5053 128.766C98.3101 126.691 99.3534 124.818 100.086 122.83C104.218 111.609 108.261 100.356 112.396 89.1363C112.669 88.3964 113.456 87.8471 114.004 87.2091C114.598 87.8198 115.331 88.3475 115.751 89.0606C116.382 90.1323 116.793 91.3339 117.428 92.5911C116.215 96.5139 114.87 100.326 113.248 104.192C112.337 103.147 111.704 102.048 110.949 100.739C110.577 101.466 110.3 101.887 110.133 102.349C107.241 110.366 104.246 118.349 101.536 126.428C100.404 129.801 97.8968 133.015 99.5497 136.951Z" fill="#E9DFFB"/>
<path d="M47.0114 88.104C42.6472 88.2553 38.1758 88.2553 33.7044 88.2553C39.1021 91.4175 39.1018 91.4175 39.101 97.8951C39.1005 102.436 39.101 106.977 39.101 111.909C36.6495 111.909 34.2556 111.909 31.8618 111.909C28.8395 111.909 25.8166 111.942 22.7954 111.883C22.1387 111.87 21.4882 111.531 20.8668 111.121C24.2449 110.905 27.5923 110.858 30.9366 110.939C32.4201 110.975 33.0262 110.524 33.0023 108.947C32.9263 103.919 32.9637 98.8896 32.9774 93.8606C32.9871 90.3189 30.7864 88.8936 27.7103 87.9527C34.1083 87.9527 40.5064 87.9527 47.0114 88.104Z" fill="#E5DAF7"/>
<path d="M32.9508 113.852C34.8571 113.628 36.7661 113.628 38.9811 113.628C39.0185 114.412 39.0878 115.205 39.0893 115.998C39.0989 121.436 39.0942 126.874 39.0944 132.313C39.0946 137.732 39.0948 137.732 33.7497 139.172C31.6224 139.204 29.6789 139.204 27.7354 139.204C27.6005 138.958 27.4657 138.712 27.3309 138.466C32.986 138.003 33.0817 134.211 32.9977 130.16C32.8866 124.801 32.9597 119.437 32.9508 113.852Z" fill="#E9DFFA"/>
<path d="M163.586 114.539C171.231 114.284 174.038 116.683 175.172 124.347C175.6 127.239 175.821 130.196 176.602 132.993C177.207 135.163 178.536 137.13 179.619 139.334C176.969 140.992 173.14 139.836 171.62 136.549C170.53 134.191 170.124 131.493 169.564 128.914C168.881 125.766 168.37 122.58 167.758 119.416C167.303 117.07 165.732 115.662 163.586 114.539Z" fill="#E9DFFB"/>
<path d="M120.665 125.407C126.568 124.809 126.567 124.809 128.685 130.339C129.011 131.192 129.357 132.038 129.672 132.894C131.207 137.071 130.801 137.89 126.418 139.151C124.186 139.185 122.14 139.185 119.956 139.185C120.161 138.716 120.186 138.493 120.292 138.443C124.875 136.26 124.9 136.226 123.045 131.409C122.293 129.454 121.481 127.523 120.665 125.407Z" fill="#E6DCF8"/>
<path d="M37.467 79.0767C51.4681 78.9282 65.3543 80.6268 79.2164 77.2828C78.7995 77.5902 78.2423 78.1854 77.5946 78.3104C72.6056 79.2734 67.6243 80.6923 62.5924 80.9258C53.4732 81.3489 44.3205 81.0538 35.1818 81.0414C34.4862 81.0405 33.7908 80.9049 33.0952 80.8318C33.0604 80.5304 33.0256 80.229 32.9907 79.9276C34.419 79.6444 35.8472 79.3612 37.467 79.0767Z" fill="#B6A5D0"/>
<path d="M90.2523 134.496C89.8277 137.286 88.429 138.538 85.4898 138.3C81.6659 137.989 77.8071 138.11 73.806 137.887C75.571 137.706 77.5047 137.541 79.4125 137.697C81.7518 137.887 82.96 136.712 83.7869 134.753C84.501 133.061 85.2394 131.375 86.0742 129.741C87.279 127.383 88.6813 127.04 91.0341 128.295C90.7231 130.354 90.42 132.36 90.2523 134.496Z" fill="#EBE1FC"/>
<path d="M102.444 79.1681C111.03 79.119 119.449 79.1629 127.869 79.2053C128.702 79.2095 129.536 79.2049 130.548 79.3028C130.292 79.9485 129.86 80.9694 129.42 80.9735C119.58 81.0642 109.739 81.043 99.8977 81.043C99.8232 80.8025 99.7487 80.5621 99.6741 80.3216C100.542 79.968 101.41 79.6144 102.444 79.1681Z" fill="#B6A5D0"/>
<path d="M82.9131 90.2893C84.2469 90.0527 85.6589 89.8647 87.0547 89.9481C89.6475 90.1033 89.9025 92.3473 90.5342 94.3648C90.5953 95.3628 90.4988 96.2747 90.8374 96.9755C91.8295 99.0294 90.6921 99.547 89.1213 99.1913C88.0472 98.9481 86.7867 98.1647 86.2353 97.2459C84.9506 95.1051 84.0439 92.7366 82.9131 90.2893Z" fill="#E2D7F5"/>
<path d="M229.025 90.3319C229.5 90.0902 229.99 89.9997 230.482 89.9908C234.773 89.9131 234.773 89.9174 236.399 94.1791C236.396 95.5643 235.787 97.1148 237.841 96.9798C237.841 96.9798 237.853 96.9864 237.857 96.9778C237.116 97.7347 236.374 99.1179 235.626 99.121C234.499 99.1258 232.893 98.4622 232.331 97.5583C230.975 95.3741 230.106 92.8863 229.025 90.3319Z" fill="#EBE1FC"/>
<path d="M79.3488 109.911C77.2554 110.748 75.1554 111.395 73.0238 111.911C71.6322 112.248 71.2996 111.407 71.5716 110.041C74.051 108.322 76.4467 106.766 79.3288 104.894C79.3288 106.521 79.3288 108.093 79.3488 109.911Z" fill="#D8CBE8"/>
<path d="M177.214 42.2234C177.405 43.3546 177.864 43.916 179.191 43.8608C181.68 43.7574 184.182 43.7415 186.665 43.9027C187.218 43.9386 187.714 44.858 188.18 45.5836C184.375 45.7967 180.626 45.7967 176.469 45.7967C176.707 44.3149 176.87 43.2996 177.214 42.2234Z" fill="#C1B3DD"/>
<path d="M71.9365 114C74.4555 112.808 76.7742 114.105 79.2554 115.167C79.3622 116.609 79.3622 117.91 79.3622 119.587C76.6442 117.524 74.3695 115.797 71.9365 114Z" fill="#E5DAF7"/>
<path d="M91.359 88.1065C85.7696 88.324 80.0738 88.4206 74.3777 88.446C68.9239 88.4704 63.4698 88.4209 57.8227 88.3182C58.1473 88.048 58.6644 87.7041 59.1826 87.7026C69.5594 87.6719 79.9362 87.6783 90.3131 87.6929C90.6263 87.6934 90.9393 87.8635 91.359 88.1065Z" fill="#E5DAF7"/>
<path d="M196.9 67.9599C197.329 66.7025 197.933 65.4447 198.658 64.0651C198.21 65.2821 197.643 66.6207 196.9 67.9599Z" fill="#BEAFDA"/>
<path d="M195.882 69.4683C195.938 68.9888 196.177 68.5193 196.572 68.0029C196.508 68.4635 196.287 68.9709 195.882 69.4683Z" fill="#BEAFDA"/>
<path d="M187.99 54.4041C188.103 54.5667 188.12 54.8112 188.054 55.2233C187.946 55.0893 187.92 54.7877 187.99 54.4041Z" fill="#C1B3DD"/>
<path d="M159.505 111.606C164.992 111.416 168.983 108.388 170.344 103.199C171.658 98.1864 169.322 93.3545 164.091 90.3309C173.161 89.9776 178.374 95.7542 176.639 104.191C175.897 107.798 173.742 110.397 170.311 111.319C167.137 112.172 163.753 112.254 160.454 112.598C160.157 112.629 159.801 112.09 159.505 111.606Z" fill="#E6DCF8"/>
<path d="M114.451 119.628C113.85 118.912 113.379 118.323 112.907 117.736C111.943 116.537 111.717 115.335 112.941 114.169C114.212 112.958 115.378 113.477 116.494 114.438C116.809 114.709 117.1 115.008 117.437 115.327C117.843 114.9 118.2 114.182 118.653 114.115C119.812 113.944 121.217 113.701 122.119 114.209C122.621 114.491 122.765 116.527 122.283 117.233C121.035 119.059 119.351 120.586 117.682 122.406C116.445 121.349 115.512 120.553 114.451 119.628Z" fill="#E5DAF7"/>
<path d="M114.536 108.837C115.467 106.204 116.343 103.766 117.382 100.876C118.931 104.93 120.318 108.559 121.918 112.747C118.852 112.747 116.193 112.747 113.164 112.747C113.757 111.072 114.119 110.052 114.536 108.837Z" fill="#E5DAF7"/>
<path d="M121.524 120.33C122.28 119.456 122.91 118.709 123.785 117.673C124.544 119.675 125.205 121.421 125.964 123.424C123.174 123.424 120.668 123.424 117.896 123.424C119.169 122.346 120.284 121.402 121.524 120.33Z" fill="#E5DAF7"/>
<path d="M109.852 123.495C110.137 121.621 110.628 119.834 111.018 118.417C112.774 120.271 114.462 122.054 115.907 123.581C114.472 123.581 112.265 123.581 109.852 123.495Z" fill="#E2D7F5"/>
<path d="M75.4598 74.017C76.6205 72.1261 78.0712 70.3085 79.2775 68.3406C84.4599 59.886 83.209 46.6097 76.2798 39.5547C71.9084 35.1039 66.2532 33.3865 59.8005 33.5647C59.3057 32.3436 59.6023 31.7248 61.0429 31.6784C70.2258 31.3825 78.4348 33.4288 82.8768 42.3665C87.5291 51.7273 86.979 61.0614 80.7522 69.6636C79.4755 71.4273 77.3641 72.5844 75.4598 74.017Z" fill="#BEAFDA"/>
<path d="M74.4574 74.5756C74.5231 74.3751 74.7454 74.1789 75.123 73.9988C75.0568 74.2034 74.8354 74.3917 74.4574 74.5756Z" fill="#BEAFDA"/>
<path d="M237.784 96.8267C235.787 97.1147 236.396 95.5642 236.396 94.3628C236.927 95.0541 237.327 95.8639 237.784 96.8267Z" fill="white"/>
</svg>
