<svg width="19" height="19" viewBox="0 0 19 19" fill="none" xmlns="http://www.w3.org/2000/svg">
<path fill-rule="evenodd" clip-rule="evenodd" d="M5.0411 0.33728C5.54736 0.33728 5.95776 0.747686 5.95776 1.25395V2.17061H13.2911V1.25395C13.2911 0.747686 13.7015 0.33728 14.2078 0.33728C14.714 0.33728 15.1244 0.747686 15.1244 1.25395V2.17061H16.0411C17.5599 2.17061 18.7911 3.40183 18.7911 4.92061V15.9206C18.7911 17.4394 17.5599 18.6706 16.0411 18.6706H3.20776C1.68898 18.6706 0.457764 17.4394 0.457764 15.9206V4.92061C0.457764 3.40183 1.68898 2.17061 3.20776 2.17061H4.12443V1.25395C4.12443 0.747686 4.53484 0.33728 5.0411 0.33728ZM13.2911 4.00395V4.92061C13.2911 5.42687 13.7015 5.83728 14.2078 5.83728C14.714 5.83728 15.1244 5.42687 15.1244 4.92061V4.00395H16.0411C16.5474 4.00395 16.9578 4.41435 16.9578 4.92061V7.67061H2.2911V4.92061C2.2911 4.41435 2.7015 4.00395 3.20776 4.00395H4.12443V4.92061C4.12443 5.42687 4.53484 5.83728 5.0411 5.83728C5.54736 5.83728 5.95776 5.42687 5.95776 4.92061V4.00395H13.2911ZM2.2911 9.50395V15.9206C2.2911 16.4269 2.7015 16.8373 3.20776 16.8373H16.0411C16.5474 16.8373 16.9578 16.4269 16.9578 15.9206V9.50395H2.2911Z" fill="#6F767E"/>
</svg>
