<svg width="18" height="24" viewBox="0 0 18 24" fill="none" xmlns="http://www.w3.org/2000/svg">
<path d="M7.5 0C6.67157 0 6 0.671573 6 1.5C6 2.32843 6.67157 3 7.5 3H10.5C11.3284 3 12 2.32843 12 1.5C12 0.671573 11.3284 0 10.5 0H7.5Z" fill="white"/>
<path fill-rule="evenodd" clip-rule="evenodd" d="M0 4.5C0 2.84315 1.34315 1.5 3 1.5C3 3.98528 5.01472 6 7.5 6H10.5C12.9853 6 15 3.98528 15 1.5C16.6569 1.5 18 2.84315 18 4.5V21C18 22.6569 16.6569 24 15 24H3C1.34315 24 0 22.6569 0 21V4.5ZM14.5607 13.0607C15.1464 12.4749 15.1464 11.5251 14.5607 10.9393C13.9749 10.3536 13.0251 10.3536 12.4393 10.9393L7.5 15.8787L5.56066 13.9393C4.97487 13.3536 4.02513 13.3536 3.43934 13.9393C2.85355 14.5251 2.85355 15.4749 3.43934 16.0607L6.43934 19.0607C7.02513 19.6464 7.97487 19.6464 8.56066 19.0607L14.5607 13.0607Z" fill="white"/>
</svg>
