<svg width="17" height="16" viewBox="0 0 17 16" fill="none" xmlns="http://www.w3.org/2000/svg">
<path d="M8.16328 2.90278C8.66188 2.34917 9.39138 2 10.2041 2C11.7069 2 12.9252 3.19391 12.9252 4.66667C12.9252 6.13943 11.7069 7.33333 10.2041 7.33333C9.39138 7.33333 8.66188 6.98416 8.16328 6.43055M10.2041 14H2.04083V13.3333C2.04083 11.1242 3.86824 9.33333 6.12247 9.33333C8.37669 9.33333 10.2041 11.1242 10.2041 13.3333V14ZM10.2041 14H14.2857V13.3333C14.2857 11.1242 12.4583 9.33333 10.2041 9.33333C9.46066 9.33333 8.76364 9.52812 8.16328 9.86846M8.84355 4.66667C8.84355 6.13943 7.62528 7.33333 6.12247 7.33333C4.61965 7.33333 3.40138 6.13943 3.40138 4.66667C3.40138 3.19391 4.61965 2 6.12247 2C7.62528 2 8.84355 3.19391 8.84355 4.66667Z" stroke="#3D1852" stroke-linecap="round" stroke-linejoin="round"/>
</svg>
