<svg width="182" height="150" viewBox="0 0 182 150" fill="none" xmlns="http://www.w3.org/2000/svg">
<path d="M92.3384 138.657C91.828 139.104 91.3176 139.55 90.7383 140.056C83.5725 132.682 75.6033 126.531 67.1499 121.009C59.8789 116.26 52.624 111.464 45.5747 106.366C37.657 100.64 29.7361 94.8657 22.2531 88.5452C11.6575 79.5956 4.0602 68.2051 1.05646 54.1752C-3.73511 31.7947 7.67904 4.49043 37.2089 0.135989C40.0092 4.0506e-07 42.735 3.81914e-07 45.7216 0.132863C47.0237 0.379751 48.0711 0.451032 49.1052 0.614384C60.0287 2.33984 69.8851 6.90331 78.9996 13.2658C83.0882 16.1199 86.9269 19.367 90.9338 22.4784C92.2372 21.3439 93.6303 20.0718 95.0817 18.8774C104.76 10.9133 115.173 4.41914 127.279 1.35282C129.267 0.849196 131.279 0.448348 133.28 7.63827e-07C136.253 3.75497e-07 139.226 3.8833e-07 142.373 0C144.376 0.376518 146.204 0.758817 148.034 1.12866C165.867 4.7318 178.81 18.9983 181.5 37.7576C183.136 49.1594 180.65 59.6452 175.614 69.6303C176.476 64.9352 177.713 60.3217 178.228 55.6214C179.101 47.6468 178.533 39.7611 175.035 32.3971C166.648 14.742 146.751 6.26163 128.537 10.6805C118.345 13.1531 109.462 18.5043 101.127 24.9435C98.708 26.8123 96.3622 28.7851 93.8916 30.6222C85.1587 22.3243 75.4168 16.0608 64.2651 12.3376C55.3105 9.34799 46.2525 8.19841 37.0677 11.1778C16.7273 17.7759 4.96806 41.2754 11.1219 63.0249C14.4241 74.6959 21.4587 83.7049 29.8965 91.6964C37.4762 98.8752 46.0874 104.553 54.5635 110.444C65.1886 117.828 75.7425 125.327 86.2372 132.913C88.4694 134.527 90.3148 136.727 92.3384 138.657Z" fill="#3F1B55"/>
<path d="M93.9828 30.7103C96.3622 28.7851 98.708 26.8124 101.127 24.9435C109.462 18.5043 118.345 13.1532 128.537 10.6805C146.751 6.26167 166.648 14.7421 175.035 32.3972C178.533 39.7611 179.101 47.6468 178.228 55.6214C177.713 60.3218 176.476 64.9353 175.558 69.774C173.378 73.4517 171.313 77.0263 168.981 80.3974C167.908 81.948 167.73 82.7679 169.062 84.3801C177.881 95.0576 180.847 107.235 176.993 120.961C176.496 122.731 175.615 124.418 177.834 125.585C176.349 128.231 174.919 130.643 173.644 133.141C173.291 133.834 173.138 134.864 173.341 135.605C174.694 140.551 173.074 145.78 169.28 148.302C165.27 150.968 160.091 150.457 156.427 147.033C153.64 144.428 152.615 139.504 154.011 135.421C155.324 131.58 159.051 128.383 162.837 128.628C165.737 128.816 167.5 127.909 168.571 125.173C168.847 124.467 169.371 123.872 169.736 123.198C170.311 122.139 170.808 120.98 172.22 121.983C177.539 109.072 174.068 94.3256 164.326 85.8384C163.981 86.1546 163.592 86.4542 163.269 86.8174C155.838 95.154 146.975 101.567 137.884 107.692C124.927 116.422 111.69 124.726 99.6894 134.925C97.9202 136.428 96.2801 138.098 94.4702 139.587C94.3766 139.226 94.3544 138.958 94.4152 138.712C97.1933 127.51 101.316 116.91 107.449 107.241C111.728 100.497 116.679 94.3209 122.591 89.091C127.614 84.6465 132.666 80.191 138.04 76.2398C144.221 71.6951 150.194 66.9971 155.053 60.8853C157.604 57.6777 159.591 54.1475 160.867 50.1816C161.219 49.0845 161.254 48.0639 160.124 47.5325C159.029 47.0176 158.275 47.6204 157.69 48.6328C157.052 49.7363 156.325 50.7844 155.618 51.8425C154.17 54.0086 152.747 56.1952 151.219 58.2977C150.948 58.6705 150.218 58.6772 149.7 58.853C149.593 58.275 149.4 57.6948 149.413 57.1197C149.421 56.7818 149.749 56.4475 149.944 56.1191C152.225 52.2846 154.524 48.4621 156.78 44.6117C157.446 43.4743 157.999 42.1869 156.623 41.1963C155.247 40.2063 154.183 40.8861 153.364 42.1883C152.585 43.4284 151.81 44.672 151.026 45.9088C149.765 47.8987 148.545 49.9214 147.195 51.8437C146.889 52.2794 146.123 52.3605 145.568 52.6049C145.521 51.9624 145.42 51.3168 145.452 50.6787C145.467 50.3963 145.752 50.1291 145.913 49.8546C148.08 46.1742 150.227 42.4806 152.424 38.8202C153.258 37.4318 153.195 36.2248 151.895 35.2941C150.559 34.337 149.812 35.5387 149.177 36.4223C148.029 38.0188 147.037 39.7373 145.956 41.3877C144.876 43.0357 143.808 44.6965 142.639 46.2728C142.377 46.6253 141.712 46.6492 141.233 46.8244C141.108 46.2532 140.894 45.6822 140.893 45.1106C140.892 44.7761 141.228 44.4397 141.415 44.1055C143.343 40.6512 145.268 37.194 147.205 33.7447C147.899 32.5091 147.996 31.4254 146.594 30.6608C145.298 29.9536 144.554 30.6451 143.881 31.7551C142.328 34.3154 140.755 36.864 139.118 39.3657C138.215 40.7455 137.242 42.0923 136.167 43.3264C134.575 45.1547 133.848 44.9808 133.226 42.646C132.815 41.1042 132.723 39.4645 132.266 37.9423C131.922 36.8 131.223 35.7751 130.683 34.6979C130.068 35.7445 129.144 36.7149 128.89 37.85C127.358 44.6798 124.511 50.8223 120.614 56.4968C117.268 61.368 113.813 66.0918 109.558 70.1853C102.967 76.527 95.3375 80.7825 86.8033 83.3387C79.8234 85.4293 72.6561 86.4413 65.4385 85.7306C55.6952 84.7711 47.5038 80.0413 40.5161 73.025C36.0863 68.577 32.4102 63.4502 29.6747 57.6958C28.4348 55.0877 27.7463 52.18 26.9457 49.3651C26.7982 48.8465 27.1584 47.7854 27.5637 47.5799C28.0234 47.3468 28.9924 47.5804 29.3985 47.9862C30.6245 49.2115 31.7841 50.5424 32.7863 51.973C34.2047 53.9976 35.4098 56.1861 36.8274 58.2112C37.0971 58.5965 37.931 58.5482 38.5045 58.7C38.6057 58.079 38.7676 57.4594 38.78 56.8365C38.7855 56.5664 38.4749 56.2945 38.3218 56.0151C36.1742 52.096 34.0294 48.1753 31.8831 44.2556C31.3847 43.3454 31.0451 42.3888 32.1692 41.7631C33.1163 41.2357 33.8399 41.5792 34.4926 42.5636C36.5293 45.6352 38.6932 48.6139 40.7599 51.6642C41.3049 52.4686 41.8016 53.2178 42.8194 52.5715C43.9217 51.8716 43.3105 51.0813 42.8479 50.2837C40.5446 46.3132 38.2779 42.3194 35.9641 38.3557C35.3587 37.3186 35.2721 36.2808 36.245 35.6277C37.1937 34.9908 38.2607 35.054 38.9021 36.334C39.0728 36.6748 39.3169 36.9747 39.5219 37.2972C41.2641 40.0382 42.9461 42.8251 44.7954 45.4844C45.1711 46.0248 46.3212 46.4924 46.8595 46.2811C47.9428 45.8558 47.7863 44.7717 47.2461 43.8283C47.0878 43.5518 46.8844 43.3039 46.7228 43.0293C45.0419 40.1721 43.3198 37.3396 41.72 34.4333C41.3283 33.7219 41.1146 32.7236 41.2499 31.9387C41.334 31.4508 42.332 30.6947 42.7352 30.8044C43.4661 31.0031 44.2295 31.6325 44.6812 32.3026C47.0935 35.8815 49.367 39.5638 51.806 43.1219C52.2768 43.8087 53.397 44.6106 53.9911 44.4484C54.7348 44.2454 55.5716 43.1928 55.7875 42.3447C56.2412 40.5618 56.2254 38.6534 56.5846 36.8362C56.7652 35.9224 57.3448 35.0952 57.744 34.2288C58.4689 34.8799 59.5701 35.3918 59.8454 36.2091C60.5556 38.3168 60.9726 40.5451 61.3765 42.7514C62.2402 47.469 65.8803 50.9692 69.9445 50.3859C71.8768 50.1085 74.0079 49.2994 75.494 48.0223C81.5324 42.8329 87.3608 37.3749 93.2456 31.9906C93.5868 31.6784 93.7414 31.1422 93.9828 30.7103ZM167.944 139.23C167.458 136.361 165.911 134.774 163.648 134.825C161.523 134.873 159.735 136.607 159.551 138.797C159.346 141.238 160.874 143.337 163.094 143.664C165.544 144.026 167.393 142.443 167.944 139.23Z" fill="#C0B1DD"/>
<path d="M93.8916 30.6222C93.7414 31.1421 93.5868 31.6783 93.2455 31.9905C87.3608 37.3748 81.5324 42.8329 75.494 48.0222C74.0079 49.2993 71.8768 50.1085 69.9445 50.3858C65.8803 50.9691 62.2402 47.469 61.3765 42.7513C60.9726 40.545 60.5555 38.3168 59.8454 36.2091C59.57 35.3917 58.4689 34.8798 57.744 34.2287C57.3448 35.0951 56.7652 35.9223 56.5846 36.8361C56.2253 38.6534 56.2412 40.5618 55.7875 42.3446C55.5716 43.1927 54.7348 44.2453 53.9911 44.4483C53.397 44.6105 52.2768 43.8087 51.8059 43.1218C49.367 39.5637 47.0935 35.8815 44.6812 32.3026C44.2295 31.6324 43.4661 31.0031 42.7352 30.8043C42.332 30.6947 41.334 31.4507 41.2499 31.9386C41.1146 32.7235 41.3283 33.7218 41.72 34.4333C43.3198 37.3396 45.0419 40.1721 46.7228 43.0292C46.8844 43.3039 47.0878 43.5518 47.2461 43.8282C47.7863 44.7716 47.9428 45.8558 46.8595 46.281C46.3212 46.4924 45.1711 46.0247 44.7954 45.4844C42.9461 42.8251 41.2641 40.0382 39.5219 37.2971C39.3169 36.9746 39.0728 36.6747 38.9021 36.3339C38.2607 35.0539 37.1937 34.9907 36.245 35.6276C35.2721 36.2808 35.3587 37.3186 35.9641 38.3556C38.2779 42.3193 40.5446 46.3131 42.8479 50.2836C43.3105 51.0812 43.9217 51.8715 42.8194 52.5714C41.8015 53.2178 41.3049 52.4685 40.7599 51.6642C38.6932 48.6138 36.5292 45.6351 34.4926 42.5635C33.8398 41.5791 33.1163 41.2357 32.1691 41.763C31.0451 42.3888 31.3847 43.3454 31.8831 44.2555C34.0294 48.1753 36.1742 52.096 38.3218 56.015C38.4749 56.2944 38.7854 56.5663 38.78 56.8364C38.7676 57.4593 38.6057 58.079 38.5045 58.7C37.9309 58.5482 37.0971 58.5964 36.8274 58.2111C35.4097 56.186 34.2046 53.9975 32.7863 51.9729C31.7841 50.5423 30.6245 49.2114 29.3985 47.9862C28.9924 47.5804 28.0234 47.3467 27.5637 47.5798C27.1583 47.7854 26.7982 48.8465 26.9457 49.365C27.7463 52.1799 28.4348 55.0876 29.6747 57.6957C32.4102 63.4502 36.0863 68.5769 40.5161 73.0249C47.5038 80.0412 55.6952 84.771 65.4385 85.7305C72.6561 86.4413 79.8234 85.4292 86.8032 83.3386C95.3374 80.7824 102.967 76.527 109.558 70.1853C113.813 66.0918 117.268 61.3679 120.614 56.4967C124.511 50.8223 127.358 44.6798 128.89 37.85C129.144 36.7148 130.068 35.7444 130.683 34.6979C131.223 35.775 131.922 36.8 132.266 37.9422C132.723 39.4644 132.815 41.1041 133.226 42.6459C133.848 44.9807 134.575 45.1546 136.167 43.3263C137.242 42.0922 138.215 40.7454 139.118 39.3657C140.755 36.864 142.328 34.3154 143.881 31.755C144.554 30.6451 145.298 29.9536 146.594 30.6607C147.996 31.4254 147.899 32.509 147.205 33.7446C145.268 37.1939 143.343 40.6511 141.414 44.1054C141.228 44.4397 140.892 44.776 140.893 45.1105C140.894 45.6822 141.108 46.2531 141.233 46.8244C141.712 46.6492 142.377 46.6253 142.639 46.2728C143.808 44.6964 144.876 43.0357 145.956 41.3876C147.037 39.7373 148.029 38.0187 149.177 36.4223C149.812 35.5386 150.559 34.337 151.895 35.2941C153.195 36.2248 153.258 37.4317 152.424 38.8201C150.227 42.4805 148.08 46.1742 145.913 49.8545C145.752 50.129 145.467 50.3962 145.452 50.6786C145.42 51.3168 145.521 51.9623 145.568 52.6048C146.123 52.3604 146.889 52.2793 147.195 51.8436C148.545 49.9213 149.765 47.8987 151.026 45.9087C151.81 44.6719 152.585 43.4283 153.364 42.1882C154.183 40.886 155.247 40.2062 156.623 41.1962C157.999 42.1868 157.446 43.4743 156.78 44.6116C154.524 48.4621 152.225 52.2846 149.944 56.119C149.749 56.4474 149.421 56.7817 149.413 57.1196C149.4 57.6947 149.593 58.2749 149.7 58.8529C150.218 58.6771 150.948 58.6704 151.219 58.2976C152.747 56.1951 154.17 54.0085 155.618 51.8425C156.325 50.7843 157.052 49.7362 157.69 48.6327C158.275 47.6204 159.029 47.0176 160.124 47.5325C161.254 48.0639 161.219 49.0845 160.867 50.1816C159.591 54.1474 157.604 57.6776 155.053 60.8853C150.194 66.997 144.221 71.695 138.04 76.2397C132.666 80.191 127.614 84.6465 122.591 89.0909C116.679 94.3208 111.728 100.497 107.449 107.241C101.316 116.91 97.1933 127.51 94.4152 138.712C94.3543 138.957 94.3766 139.226 94.3585 139.643C93.7589 139.437 93.1611 139.071 92.4508 138.681C90.3148 136.727 88.4694 134.526 86.2373 132.913C75.7425 125.327 65.1886 117.828 54.5635 110.444C46.0874 104.553 37.4762 98.8752 29.8965 91.6964C21.4587 83.7049 14.4241 74.6959 11.1219 63.0249C4.96806 41.2754 16.7273 17.7759 37.0677 11.1778C46.2525 8.19838 55.3105 9.34796 64.2651 12.3376C75.4168 16.0608 85.1587 22.3243 93.8916 30.6222Z" fill="#EBE1FC"/>
<path d="M167.937 139.377C167.393 142.443 165.544 144.025 163.094 143.664C160.874 143.337 159.346 141.238 159.551 138.797C159.735 136.607 161.523 134.873 163.648 134.825C165.911 134.774 167.458 136.361 167.937 139.377Z" fill="#401C56"/>
</svg>
