<svg width="25" height="23" viewBox="0 0 25 23" fill="none" xmlns="http://www.w3.org/2000/svg">
<path d="M2.36772 1.02734C1.6224 1.19141 0.914592 1.72578 0.567717 2.39141C0.230217 3.03828 0.248967 2.56484 0.248967 9.69922C0.248967 15.9102 0.253654 16.1258 0.338029 16.257C0.483342 16.4773 0.661467 16.5664 0.961467 16.5664H1.22397L2.69584 15.5211C3.50209 14.9492 4.45365 14.2695 4.80522 14.0164C5.84115 13.2805 5.15209 13.3602 10.7021 13.332L15.4599 13.3086L15.774 13.1867C16.6412 12.8492 17.2833 12.118 17.5037 11.2227C17.5552 11.0117 17.5693 10.0648 17.5693 6.23047C17.5693 1.58047 17.5693 1.49141 17.4755 1.33672C17.424 1.24766 17.3208 1.13516 17.2505 1.07891L17.1193 0.98047L9.89115 0.971095C3.90053 0.966407 2.61147 0.975782 2.36772 1.02734ZM13.749 4.94609C14.2037 5.19922 14.2177 5.75703 13.7771 6.08516C13.6505 6.18359 13.6177 6.18359 9.36615 6.18359C5.11459 6.18359 5.08178 6.18359 4.95522 6.08516C4.7349 5.92109 4.64115 5.75703 4.64115 5.53672C4.64115 5.28359 4.75834 5.07266 4.97865 4.94609C5.1474 4.85234 5.17553 4.84766 9.36147 4.84766C13.5474 4.84766 13.5708 4.84766 13.749 4.94609ZM13.749 8.22734C14.2037 8.48047 14.2177 9.03828 13.7771 9.36641C13.6505 9.46484 13.6177 9.46484 9.36615 9.46484C5.11459 9.46484 5.08178 9.46484 4.95522 9.36641C4.7349 9.20234 4.64115 9.03828 4.64115 8.81797C4.64115 8.56484 4.75834 8.35391 4.97865 8.22734C5.1474 8.13359 5.17553 8.12891 9.36147 8.12891C13.5474 8.12891 13.5708 8.12891 13.749 8.22734Z" fill="white"/>
<path d="M18.938 8.76635C18.9192 11.0257 18.9146 11.171 18.8161 11.5507C18.4458 12.9804 17.4286 14.0585 15.9989 14.5367L15.6005 14.6679L11.2458 14.682L6.89111 14.696L6.91924 15.596C6.94736 16.6085 6.99893 16.8664 7.26611 17.3773C7.58486 17.9773 8.18486 18.4601 8.9208 18.7039C9.15986 18.7835 9.49736 18.7929 13.913 18.8164C18.4505 18.8398 18.6567 18.8445 18.8536 18.9289C18.9661 18.9804 19.9927 19.6835 21.1271 20.4945C22.2661 21.3054 23.2411 21.9851 23.3021 22.0085C23.5927 22.121 23.9583 21.9945 24.1458 21.7226L24.2489 21.5679V15.1507C24.2489 8.06323 24.263 8.43823 23.9536 7.87573C23.663 7.35541 23.2974 6.99448 22.7958 6.72729C22.2849 6.45541 22.1161 6.43198 20.4661 6.40854L18.9614 6.3851L18.938 8.76635Z" fill="white"/>
</svg>
