<svg width="18" height="24" viewBox="0 0 18 24" fill="none" xmlns="http://www.w3.org/2000/svg">
<path d="M6.5 1.5C6.5 0.947715 6.94772 0.5 7.5 0.5H10.5C11.0523 0.5 11.5 0.947715 11.5 1.5C11.5 2.05228 11.0523 2.5 10.5 2.5H7.5C6.94772 2.5 6.5 2.05228 6.5 1.5ZM0.5 4.5C0.5 3.2802 1.3736 2.26444 2.52928 2.04425C2.80049 4.54966 4.92248 6.5 7.5 6.5H10.5C13.0775 6.5 15.1995 4.54966 15.4707 2.04425C16.6264 2.26444 17.5 3.2802 17.5 4.5V21C17.5 22.3807 16.3807 23.5 15 23.5H3C1.61929 23.5 0.5 22.3807 0.5 21V4.5ZM4.5 10C3.39543 10 2.5 10.8954 2.5 12C2.5 13.1046 3.39543 14 4.5 14H4.515C5.61957 14 6.515 13.1046 6.515 12C6.515 10.8954 5.61957 10 4.515 10H4.5ZM9 10C7.89543 10 7 10.8954 7 12C7 13.1046 7.89543 14 9 14H13.5C14.6046 14 15.5 13.1046 15.5 12C15.5 10.8954 14.6046 10 13.5 10H9ZM4.5 16C3.39543 16 2.5 16.8954 2.5 18C2.5 19.1046 3.39543 20 4.5 20H4.515C5.61957 20 6.515 19.1046 6.515 18C6.515 16.8954 5.61957 16 4.515 16H4.5ZM9 16C7.89543 16 7 16.8954 7 18C7 19.1046 7.89543 20 9 20H13.5C14.6046 20 15.5 19.1046 15.5 18C15.5 16.8954 14.6046 16 13.5 16H9Z" fill="white" stroke="white"/>
</svg>
