<svg width="17" height="20" viewBox="0 0 17 20" fill="none" xmlns="http://www.w3.org/2000/svg">
<path d="M5.5 3C5.5 1.89543 6.39543 1 7.5 1H9.5C10.6046 1 11.5 1.89543 11.5 3C11.5 4.10457 10.6046 5 9.5 5H7.5C6.39543 5 5.5 4.10457 5.5 3Z" fill="white"/>
<path d="M5.5 3H3.5C2.39543 3 1.5 3.89543 1.5 5V17C1.5 18.1046 2.39543 19 3.5 19H13.5C14.6046 19 15.5 18.1046 15.5 17V5C15.5 3.89543 14.6046 3 13.5 3H11.5M5.5 3C5.5 4.10457 6.39543 5 7.5 5H9.5C10.6046 5 11.5 4.10457 11.5 3M5.5 3C5.5 1.89543 6.39543 1 7.5 1H9.5C10.6046 1 11.5 1.89543 11.5 3M8.5 10H11.5M8.5 14H11.5M5.5 10H5.51M5.5 14H5.51" stroke="white" stroke-width="2" stroke-linecap="round"/>
</svg>
