<svg width="36" height="36" viewBox="0 0 36 36" fill="none" xmlns="http://www.w3.org/2000/svg">
<path fill-rule="evenodd" clip-rule="evenodd" d="M22.4803 32.2607L22.4707 25.9025C22.469 24.7092 22.6266 23.5879 23.5129 22.7891C24.5008 21.8985 26.297 20.5497 27.6796 18.9149C28.2904 18.3643 29.2124 18.3337 29.7937 18.915C30.375 19.4963 30.3941 20.2823 29.7939 21.029L30.2642 20.4501C30.8032 19.7867 31.0907 19.0576 31.0875 18.2027L31.0642 12.0815C31.0461 7.3234 34.5385 8.64234 34.5839 10.2471L34.9031 21.5155C34.9324 22.5518 34.5593 23.4519 33.826 24.185L28.7292 29.2818V32.2592C28.7291 32.8316 28.2623 33.2986 27.6899 33.2985H23.5197C22.9478 33.2985 22.4812 32.8326 22.4803 32.2607Z" fill="#F6DCCD"/>
<path fill-rule="evenodd" clip-rule="evenodd" d="M30.0162 19.1884C30.3669 19.7303 30.3045 20.3938 29.7939 21.029C28.9624 21.8659 28.125 22.6979 27.2908 23.5321C27.1832 23.6376 27.0382 23.6963 26.8875 23.6956C26.7368 23.6948 26.5924 23.6346 26.4859 23.528C26.3793 23.4214 26.3191 23.2771 26.3183 23.1263C26.3175 22.9756 26.3762 22.8307 26.4817 22.723L30.0162 19.1884ZM22.4803 32.2607L22.4707 25.9025C22.469 24.7092 22.6266 23.5879 23.5129 22.7891C24.0414 22.3126 24.8013 21.705 25.6055 20.9925V33.2985H23.5197C22.9478 33.2985 22.4812 32.8326 22.4803 32.2607Z" fill="#F1CBBC"/>
<path fill-rule="evenodd" clip-rule="evenodd" d="M21.4269 30.9146L30.285 30.9908C30.7133 30.9944 31.0607 31.3479 31.057 31.7762L31.0424 33.4814C31.0387 33.9097 30.6853 34.2571 30.2569 34.2534L21.3988 34.1774C20.9705 34.1737 20.6231 33.8202 20.6267 33.392L20.6413 31.6867C20.6451 31.2584 20.9985 30.911 21.4269 30.9146Z" fill="#D1D1D6"/>
<path fill-rule="evenodd" clip-rule="evenodd" d="M27.1615 31.5758L28.7294 31.5892L30.2798 31.6026C30.7073 31.6062 31.0541 31.9582 31.0519 32.3854L31.0571 31.7762C31.0608 31.3479 30.7134 30.9945 30.2851 30.9908L28.7294 30.9775L25.6058 30.9506L22.4785 30.9237L21.4269 30.9147C21.0559 30.9115 20.741 31.1718 20.6611 31.5199L22.4819 31.5355L25.6056 31.5623L27.1612 31.5758H27.1615Z" fill="#B1B1B5"/>
<path fill-rule="evenodd" clip-rule="evenodd" d="M13.4469 32.2607L13.4565 25.9025C13.4583 24.7092 13.3007 23.5879 12.4144 22.7891C11.4264 21.8985 9.63025 20.5497 8.24757 18.9149C7.63691 18.3643 6.71489 18.3337 6.13359 18.915C5.55223 19.4963 5.5331 20.2823 6.13345 21.029L5.66298 20.4501C5.12404 19.7867 4.8366 19.0576 4.83971 18.2027L4.86315 12.0815C4.88107 7.3234 1.38872 8.64234 1.34333 10.2471L1.02406 21.5155C0.994768 22.5518 1.3679 23.4519 2.10117 24.185L7.19813 29.2818V32.2592C7.19813 32.8316 7.66493 33.2986 8.2374 33.2985H12.4075C12.9795 33.2985 13.446 32.8326 13.4469 32.2607Z" fill="#F6DCCD"/>
<path fill-rule="evenodd" clip-rule="evenodd" d="M5.91097 19.1884C5.5605 19.7303 5.62276 20.3938 6.13347 21.029C6.96478 21.8659 7.80224 22.6979 8.63638 23.5321C8.74385 23.6387 8.88913 23.6983 9.04044 23.6979C9.19175 23.6976 9.33677 23.6374 9.44376 23.5304C9.55076 23.4234 9.61102 23.2784 9.61137 23.1271C9.61171 22.9758 9.55211 22.8305 9.44561 22.723L5.91097 19.1884ZM13.4469 32.2607L13.4565 25.9025C13.4583 24.7092 13.3007 23.5879 12.4144 22.7891C11.8858 22.3126 11.1259 21.705 10.3217 20.9925L10.3218 33.2985H12.4075C12.9795 33.2985 13.4461 32.8326 13.4469 32.2607Z" fill="#F1CBBC"/>
<path fill-rule="evenodd" clip-rule="evenodd" d="M14.5006 30.9146L5.64241 30.9908C5.21408 30.9944 4.86672 31.3479 4.87039 31.7762L4.88507 33.4814C4.88874 33.9097 5.24218 34.2571 5.67044 34.2534L14.5286 34.1774C14.957 34.1737 15.3044 33.8202 15.3006 33.392L15.286 31.6867C15.2823 31.2584 14.9289 30.911 14.5006 30.9146Z" fill="#D1D1D6"/>
<path fill-rule="evenodd" clip-rule="evenodd" d="M8.76601 31.5758L7.19811 31.5892L5.64771 31.6026C5.2203 31.6062 4.87335 31.9582 4.87561 32.3854L4.87039 31.7762C4.86672 31.3479 5.21408 30.9945 5.64248 30.9908L7.19811 30.9775L10.3218 30.9506L13.449 30.9237L14.5006 30.9147C14.8716 30.9115 15.1864 31.1718 15.2664 31.5199L13.4456 31.5355L10.3219 31.5623L8.7663 31.5758H8.76601Z" fill="#B1B1B5"/>
<path fill-rule="evenodd" clip-rule="evenodd" d="M18.3859 2.16305L26.2008 5.5121C26.5035 5.6422 26.6882 5.92222 26.6882 6.25208V12.7761C26.6882 17.9534 22.9805 21.9516 17.9637 22.8263C12.9469 21.9516 9.23926 17.9534 9.23926 12.7761V6.25208C9.23926 5.92222 9.42385 5.6422 9.72653 5.5121L17.5415 2.16305C17.8214 2.04347 18.1059 2.04347 18.3859 2.16305Z" fill="#EBE0FA"/>
<path fill-rule="evenodd" clip-rule="evenodd" d="M25.4927 5.20786L26.2009 5.51209C26.5036 5.64218 26.6882 5.92221 26.6882 6.25207V12.7761C26.6882 14.5407 26.2584 16.1675 25.4927 17.5795V5.20786Z" fill="#EBE0FA"/>
<path fill-rule="evenodd" clip-rule="evenodd" d="M16.4035 10.8515V7.75525C16.4035 7.66165 16.4407 7.57189 16.5069 7.50571C16.5731 7.43952 16.6628 7.40233 16.7564 7.40231H19.2474C19.2937 7.40228 19.3396 7.41138 19.3825 7.4291C19.4253 7.44683 19.4642 7.47282 19.497 7.5056C19.5298 7.53839 19.5558 7.57731 19.5735 7.62015C19.5912 7.66298 19.6003 7.7089 19.6003 7.75525V10.8515H22.6965C22.7429 10.8514 22.7888 10.8605 22.8316 10.8783C22.8745 10.896 22.9134 10.922 22.9462 10.9548C22.9789 10.9875 23.0049 11.0265 23.0227 11.0693C23.0404 11.1121 23.0495 11.158 23.0495 11.2044V13.6953C23.0494 13.7889 23.0122 13.8786 22.9461 13.9448C22.8799 14.011 22.7901 14.0482 22.6965 14.0482H19.6003V17.1444C19.6003 17.238 19.5631 17.3278 19.4969 17.394C19.4307 17.4601 19.341 17.4973 19.2474 17.4973H16.7564C16.7101 17.4974 16.6642 17.4883 16.6213 17.4706C16.5785 17.4528 16.5396 17.4268 16.5068 17.3941C16.474 17.3613 16.448 17.3224 16.4303 17.2795C16.4126 17.2367 16.4035 17.1908 16.4035 17.1444V14.0482H13.3073C13.2609 14.0482 13.215 14.0391 13.1722 14.0214C13.1293 14.0037 13.0904 13.9777 13.0576 13.9449C13.0249 13.9121 12.9989 13.8732 12.9811 13.8304C12.9634 13.7875 12.9543 13.7416 12.9543 13.6953V11.2044C12.9544 11.1108 12.9916 11.021 13.0577 10.9549C13.1239 10.8887 13.2137 10.8515 13.3073 10.8515H16.4035Z" fill="#FE646F"/>
<path fill-rule="evenodd" clip-rule="evenodd" d="M14.0132 14.0482H13.3073C13.2609 14.0482 13.215 14.0391 13.1722 14.0214C13.1293 14.0037 13.0904 13.9777 13.0576 13.9449C13.0249 13.9121 12.9989 13.8732 12.9811 13.8304C12.9634 13.7875 12.9543 13.7416 12.9543 13.6953V11.2044C12.9544 11.1108 12.9916 11.021 13.0577 10.9549C13.1239 10.8887 13.2137 10.8515 13.3073 10.8515H14.0132C13.9668 10.8514 13.9209 10.8605 13.8781 10.8783C13.8352 10.896 13.7963 10.922 13.7635 10.9548C13.7307 10.9875 13.7047 11.0265 13.687 11.0693C13.6693 11.1121 13.6602 11.158 13.6602 11.2044V13.6953C13.6602 13.7889 13.6974 13.8786 13.7636 13.9448C13.8298 14.011 13.9196 14.0482 14.0132 14.0482ZM16.4035 10.8515V7.75525C16.4035 7.66165 16.4407 7.57189 16.5069 7.50571C16.5731 7.43952 16.6628 7.40233 16.7564 7.40231H17.4623C17.416 7.40228 17.3701 7.41138 17.3272 7.4291C17.2844 7.44683 17.2455 7.47282 17.2127 7.5056C17.1799 7.53839 17.1539 7.57731 17.1362 7.62015C17.1184 7.66298 17.1093 7.7089 17.1094 7.75525V10.8515H16.4035ZM17.4623 17.4973H16.7564C16.7101 17.4974 16.6642 17.4883 16.6213 17.4706C16.5785 17.4528 16.5396 17.4268 16.5068 17.3941C16.474 17.3613 16.448 17.3224 16.4303 17.2795C16.4126 17.2367 16.4035 17.1908 16.4035 17.1444V14.0482H17.1094V17.1444C17.1094 17.238 17.1466 17.3278 17.2128 17.394C17.279 17.4601 17.3687 17.4973 17.4623 17.4973Z" fill="#FD4755"/>
<path fill-rule="evenodd" clip-rule="evenodd" d="M29.3364 30.4233L30.1521 30.4302L30.1582 30.4302C30.901 30.4446 31.4874 31.044 31.4874 31.7869V31.7925L31.4707 33.4904C31.4692 34.2258 30.8503 34.8318 30.1149 34.8194L21.2831 34.7444C20.5364 34.7435 19.9448 34.1286 19.9448 33.396L19.9448 33.3904L19.9615 31.6925C19.963 30.9605 20.5775 30.3551 21.3099 30.3551H21.3147L21.9691 30.3607L21.9624 25.9184V25.9175C21.9624 24.5683 22.1845 23.2998 23.191 22.3968C24.1621 21.5164 25.9332 20.1949 27.2986 18.5826C27.3147 18.5636 27.3322 18.5455 27.3508 18.5287C28.1833 17.776 29.4375 17.7495 30.2365 18.5467C30.3336 18.642 30.4223 18.7455 30.5017 18.856C30.5445 18.6592 30.5663 18.4543 30.5664 18.2399L30.5414 12.1301V12.1298C30.5336 9.89775 31.2873 8.84767 32.0733 8.46142C32.7555 8.12619 33.5273 8.23349 34.1317 8.60443C34.743 8.9796 35.1634 9.61892 35.1805 10.2773L35.5057 21.5242L35.5057 21.5269C35.5346 22.7195 35.104 23.7591 34.2673 24.6054L34.2646 24.6081L29.3364 29.5283V30.4233ZM23.0985 30.3703L28.207 30.4137V29.2941C28.207 29.1442 28.2666 29.0004 28.3726 28.8945L33.4652 23.8103C34.0781 23.1897 34.3976 22.4293 34.3767 21.5552L34.0515 10.3099V10.3084C34.0437 10.0077 33.8194 9.73793 33.541 9.56704C32.7363 9.07313 31.6617 9.5465 31.6707 12.1257L31.6958 18.2367V18.2389C31.6958 19.2238 31.3716 20.0653 30.744 20.8378L30.7424 20.8396L30.3256 21.3482C30.3214 21.3534 30.317 21.3584 30.3126 21.3635L30.3121 21.364C29.504 22.2815 28.6377 23.0567 27.737 23.9574C27.6311 24.0633 27.4874 24.1227 27.3377 24.1227C27.1879 24.1227 27.0443 24.0633 26.9384 23.9574C26.8325 23.8515 26.7731 23.7079 26.7731 23.5581C26.7731 23.4084 26.8325 23.2647 26.9384 23.1588C27.8163 22.2809 28.6622 21.526 29.4506 20.6334C29.7891 20.1769 29.7989 19.701 29.4425 19.3499L29.4395 19.347C29.0792 18.9866 28.5176 19.0176 28.1333 19.3444C26.7351 20.9855 24.9388 22.3365 23.9486 23.2344C23.9478 23.2352 23.947 23.2359 23.9461 23.2366C23.1862 23.9177 23.0918 24.8992 23.0918 25.9173L23.0985 30.3703ZM21.3085 31.4845L21.3056 31.4846C21.1901 31.4869 21.0909 31.5794 21.0909 31.6952L21.0908 31.7008L21.0742 33.4003C21.0764 33.5157 21.1669 33.615 21.2849 33.615H21.2897L30.127 33.69L30.1333 33.6901C30.2458 33.6923 30.3413 33.6002 30.3413 33.4877V33.4822C30.3413 33.4822 30.3579 31.7852 30.3579 31.7824C30.3571 31.7241 30.3339 31.6683 30.293 31.6267C30.252 31.5852 30.1966 31.5611 30.1383 31.5595L21.3085 31.4845ZM22.7855 32.3538C22.9106 32.679 22.7522 33.0541 22.4271 33.1876C22.0935 33.3126 21.7184 33.1542 21.5933 32.829C21.4599 32.4956 21.6183 32.1287 21.9518 31.9953C22.277 31.8619 22.6522 32.0204 22.7855 32.3538ZM6.65532 30.4233V29.528L1.73504 24.6077C0.887912 23.7606 0.465371 22.7205 0.494312 21.5269V21.5246L0.811183 10.2777V10.276C0.831795 9.61701 1.25398 8.97862 1.86598 8.60407C2.47156 8.23342 3.24379 8.12633 3.92603 8.46135C4.71267 8.8476 5.46648 9.89767 5.45864 12.1298V12.1301L5.43358 18.2413V18.2445C5.43147 18.4588 5.45257 18.6635 5.49528 18.8602C5.57481 18.7489 5.66385 18.6447 5.76139 18.5488C6.5498 17.7516 7.81608 17.7755 8.64923 18.5287C8.66822 18.5459 8.68601 18.5644 8.70252 18.584C10.0592 20.1956 11.8299 21.5164 12.8077 22.3955C13.8153 23.2986 14.0376 24.5677 14.0376 25.9175V25.9184L14.0309 30.3607L14.6854 30.3551H14.6901C15.4203 30.3551 16.0241 30.9539 16.0384 31.6841L16.0385 31.6897L16.0552 33.3904V33.396C16.0552 34.1282 15.45 34.7428 14.7181 34.7444L5.88542 34.8193C5.13937 34.8321 4.53542 34.2309 4.52109 33.4988L4.52102 33.4905L4.51269 31.7953C4.4997 31.0489 5.10097 30.4446 5.83332 30.4303L5.83961 30.4302L6.65532 30.4233ZM12.9015 30.3703L12.9082 25.9173C12.9082 24.8992 12.8138 23.9177 12.0538 23.2366L12.0532 23.236C11.054 22.3376 9.25685 20.9858 7.86584 19.3438C7.48255 19.0182 6.91763 18.9846 6.56335 19.3441L6.55749 19.3499C6.20109 19.701 6.21097 20.1769 6.54944 20.6334C7.33834 21.5267 8.18483 22.2822 9.05518 23.1606C9.2745 23.3821 9.27288 23.74 9.05144 23.9593C8.83001 24.1786 8.4722 24.177 8.25281 23.9555C7.36114 23.0554 6.4953 22.2808 5.6877 21.3639L5.68735 21.3635C5.68414 21.3598 5.68099 21.3562 5.67789 21.3525L5.25274 20.8439L5.24497 20.8345C4.62711 20.0621 4.29507 19.2201 4.30424 18.2356L4.32923 12.1257C4.33417 10.7235 4.04652 9.92669 3.57888 9.56894C3.22516 9.29838 2.78737 9.36431 2.45561 9.56739C2.17551 9.73878 1.9497 10.0093 1.9401 10.3108L1.62337 21.555C1.60241 22.4286 1.91356 23.1891 2.53361 23.8091L7.61935 28.8948C7.67178 28.9472 7.71338 29.0095 7.74176 29.078C7.77013 29.1465 7.78474 29.22 7.78474 29.2941V30.4137L12.9015 30.3703ZM14.6915 31.4845L5.85104 31.5596C5.7357 31.5642 5.6397 31.658 5.64196 31.7761L5.64203 31.7841L5.65043 33.4812C5.65502 33.5965 5.74883 33.6924 5.86685 33.6901L5.87292 33.69L14.7104 33.615H14.7152C14.8318 33.615 14.9249 33.5142 14.9258 33.3977C14.9258 33.3977 14.9092 31.7046 14.9091 31.7019C14.9045 31.584 14.8096 31.4853 14.6915 31.4845ZM14.4067 32.3538C14.54 32.679 14.3733 33.0541 14.0482 33.1876C13.7147 33.3126 13.3479 33.1542 13.2145 32.829C13.081 32.4956 13.2478 32.1287 13.573 31.9953C13.9064 31.8619 14.2733 32.0204 14.4067 32.3538ZM18.2225 1.5557L26.9088 5.27909C27.0104 5.3226 27.097 5.39498 27.1578 5.48724C27.2187 5.57951 27.2511 5.6876 27.2511 5.79812V12.822C27.2511 17.9829 23.495 22.4428 18.4138 23.3286L18.0973 23.3839C18.0329 23.3952 17.9671 23.3952 17.9027 23.3839L17.5865 23.3286C12.505 22.4428 8.7489 17.9829 8.7489 12.822V5.79812C8.74889 5.6876 8.78131 5.57951 8.84216 5.48724C8.903 5.39498 8.98959 5.3226 9.09118 5.27909L17.7775 1.5557C17.8478 1.52555 17.9235 1.51001 18 1.51001C18.0765 1.51001 18.1522 1.52555 18.2225 1.5557ZM18 2.68913L9.87831 6.1704V12.822C9.87831 17.4365 13.237 21.424 17.7804 22.216L18 22.2544L18.2196 22.216C22.763 21.424 26.1217 17.4365 26.1217 12.822V6.1704L18 2.68913ZM15.8369 10.2881V7.40365C15.8369 7.25388 15.8964 7.11025 16.0023 7.00434C16.1082 6.89844 16.2518 6.83894 16.4016 6.83894H19.5984C19.7482 6.83894 19.8918 6.89844 19.9977 7.00434C20.1036 7.11025 20.1631 7.25388 20.1631 7.40365V10.2881H23.0475C23.1973 10.2881 23.3409 10.3476 23.4468 10.4535C23.5527 10.5594 23.6122 10.703 23.6122 10.8528V14.0496C23.6122 14.1994 23.5527 14.343 23.4468 14.4489C23.3409 14.5548 23.1973 14.6143 23.0475 14.6143H20.1631V17.4988C20.1631 17.6485 20.1036 17.7922 19.9977 17.8981C19.8918 18.004 19.7482 18.0635 19.5984 18.0635H16.4016C16.2518 18.0635 16.1082 18.004 16.0023 17.8981C15.8964 17.7922 15.8369 17.6485 15.8369 17.4988V14.6143H12.9524C12.8027 14.6143 12.659 14.5548 12.5531 14.4489C12.4472 14.343 12.3877 14.1994 12.3877 14.0496V10.8528C12.3877 10.703 12.4472 10.5594 12.5531 10.4535C12.659 10.3476 12.8027 10.2881 12.9524 10.2881H15.8369ZM16.4016 11.4175H13.5171V13.4849H16.4016C16.5514 13.4849 16.695 13.5444 16.8009 13.6503C16.9068 13.7562 16.9663 13.8998 16.9663 14.0496V16.9341H19.0337V14.0496C19.0337 13.8998 19.0932 13.7562 19.1991 13.6503C19.305 13.5444 19.4486 13.4849 19.5984 13.4849H22.4828V11.4175H19.5984C19.4486 11.4175 19.305 11.358 19.1991 11.2521C19.0932 11.1462 19.0337 11.0026 19.0337 10.8528V7.96836H16.9663V10.8528C16.9663 11.0026 16.9068 11.1462 16.8009 11.2521C16.695 11.358 16.5514 11.4175 16.4016 11.4175ZM6.28347 3.17556C6.28347 3.4872 6.03041 3.74026 5.71876 3.74026C5.40704 3.74026 5.15405 3.4872 5.15405 3.17556V1.74516C5.15405 1.43344 5.40704 1.18045 5.71876 1.18045C6.03041 1.18045 6.28347 1.43344 6.28347 1.74516V3.17556ZM4.5009 3.82871C4.81255 3.82871 5.06561 4.0817 5.06561 4.39342C5.06561 4.70506 4.81255 4.95812 4.5009 4.95812H3.0705C2.75878 4.95812 2.50579 4.70506 2.50579 4.39342C2.50579 4.0817 2.75878 3.82871 3.0705 3.82871H4.5009ZM5.15405 5.61127C5.15405 5.29963 5.40704 5.04657 5.71876 5.04657C6.03041 5.04657 6.28347 5.29963 6.28347 5.61127V7.04167C6.28347 7.35332 6.03041 7.60638 5.71876 7.60638C5.40704 7.60638 5.15405 7.35332 5.15405 7.04167V5.61127ZM6.93662 4.95812C6.6249 4.95812 6.37191 4.70506 6.37191 4.39342C6.37191 4.0817 6.6249 3.82871 6.93662 3.82871H8.36702C8.67867 3.82871 8.93172 4.0817 8.93172 4.39342C8.93172 4.70506 8.67867 4.95812 8.36702 4.95812H6.93662ZM30.9755 3.17556C30.9755 3.4872 30.7225 3.74026 30.4108 3.74026C30.0992 3.74026 29.8461 3.4872 29.8461 3.17556V1.74516C29.8461 1.43344 30.0992 1.18045 30.4108 1.18045C30.7225 1.18045 30.9755 1.43344 30.9755 1.74516V3.17556ZM29.1929 3.82871C29.5046 3.82871 29.7577 4.0817 29.7577 4.39342C29.7577 4.70506 29.5046 4.95812 29.1929 4.95812H27.7625C27.4508 4.95812 27.1978 4.70506 27.1978 4.39342C27.1978 4.0817 27.4508 3.82871 27.7625 3.82871H29.1929ZM29.8461 5.61127C29.8461 5.29963 30.0992 5.04657 30.4108 5.04657C30.7225 5.04657 30.9755 5.29963 30.9755 5.61127V7.04167C30.9755 7.35332 30.7225 7.60638 30.4108 7.60638C30.0992 7.60638 29.8461 7.35332 29.8461 7.04167V5.61127ZM31.6287 4.95812C31.317 4.95812 31.064 4.70506 31.064 4.39342C31.064 4.0817 31.317 3.82871 31.6287 3.82871H33.0591C33.3707 3.82871 33.6238 4.0817 33.6238 4.39342C33.6238 4.70506 33.3707 4.95812 33.0591 4.95812H31.6287Z" fill="black"/>
</svg>
