<svg width="24" height="36" viewBox="0 0 24 36" fill="none" xmlns="http://www.w3.org/2000/svg">
<path d="M5.97095 26.0931L7.35491 33.6772L9.09683 34.2579V18.5806L5.97095 26.0931Z" fill="#857E87"/>
<path d="M9.09666 33.6772H7.35474V35.4191C7.35474 35.5731 7.41591 35.7208 7.5248 35.8297C7.63369 35.9386 7.78138 35.9998 7.93538 35.9998H10.8386V35.4191C10.8386 34.4571 10.0587 33.6772 9.09666 33.6772Z" fill="#C38C66"/>
<path d="M11.4192 29.0321H21.2901V30.1934H11.4192V29.0321Z" fill="#B6B1B7"/>
<path d="M20.9097 19.4623C20.7771 18.0901 19.7207 17.0276 18.387 16.8614H14.3224C12.9887 17.0276 11.9324 18.0901 11.7998 19.4623L10.2608 35.3633C10.2534 35.4392 10.261 35.5158 10.2832 35.5887C10.3054 35.6617 10.3417 35.7295 10.3902 35.7884C10.4387 35.8472 10.4982 35.896 10.5656 35.9317C10.6329 35.9675 10.7066 35.9897 10.7825 35.997C11.1046 36.0296 11.3858 35.7945 11.4164 35.475L12.9553 19.574C13.03 18.8018 13.5925 18.193 14.3225 18.0382C14.4408 18.0131 14.5635 17.6748 14.6893 17.6748H18.0201C18.1459 17.6748 18.2686 18.0131 18.3869 18.0382C19.1169 18.193 19.6794 18.8018 19.7541 19.574L21.1752 34.2579H22.3416L20.9097 19.4623Z" fill="#C8C5C9"/>
<path d="M21.8708 35.9998C22.5121 35.9998 23.032 35.4799 23.032 34.8385C23.032 34.1971 22.5121 33.6772 21.8708 33.6772C21.2294 33.6772 20.7095 34.1971 20.7095 34.8385C20.7095 35.4799 21.2294 35.9998 21.8708 35.9998Z" fill="#6F6571"/>
<path d="M18.387 16.8615C18.2653 16.8462 18.1428 16.8385 18.0201 16.8387H14.6894C14.564 16.8387 14.4438 16.8462 14.3225 16.8615V18.038C14.4431 18.0125 14.5661 17.9997 14.6894 17.9999H18.0202C18.1464 17.9999 18.2683 18.0128 18.3871 18.038L18.387 16.8615Z" fill="#857E87"/>
<path d="M5.14455 17.9999L5.0625 25.1719C5.0625 25.4864 4.99859 25.7977 4.8747 26.0868L1.75781 33.6328L3.29034 34.2579L6.9629 27.4374C7.22287 26.9546 7.41315 26.4374 7.52808 25.9012L9.09682 18.5806L5.14455 17.9999Z" fill="#6F6571"/>
<path d="M4.45162 18.5806V25.0715C4.45162 25.3861 4.3877 25.6973 4.26381 25.9865L0.967773 33.6772L2.10895 33.9625L5.33123 26.4438C5.51758 26.0103 5.61343 25.5433 5.6129 25.0715V17.9999L4.45162 18.5806Z" fill="#5D5360"/>
<path d="M10.1915 0.273651L7.91128 1.13709L6.92578 3.62109L7.39456 5.51953L8.51618 5.32258L10.0672 5.58105C10.775 5.69903 11.4194 5.1532 11.4194 4.43559V2.32256C11.4194 1.43564 10.9223 0.66487 10.1915 0.273651Z" fill="#F6D190"/>
<path d="M7.35489 3.86333V3.1055L6.1936 4.06449V7.54834H8.51617V5.32259C8.18609 5.24654 7.89156 5.06084 7.68064 4.7958C7.46972 4.53076 7.35489 4.20205 7.35489 3.86333Z" fill="#ECBD83"/>
<path d="M15.2372 14.3801L11.08 12.4906L9.19017 7.99159C9.03077 7.61206 8.78414 7.27544 8.4703 7.00906C8.15646 6.74268 7.78424 6.55403 7.38384 6.45843C7.18746 6.41153 6.98363 6.45562 6.77585 6.45562H6.77423C5.49145 6.45562 4.96875 8.2798 4.96875 9.56251L5.61295 18.5806H9.0968V15.3645L8.85935 14.3262L9.0968 13.6887C9.33762 14.0872 9.68981 14.4099 10.1191 14.605L14.2266 16.4721L15.5565 15.7681L15.2372 14.3801Z" fill="#D19A6E"/>
<path d="M2.7097 33.6772H0.967773V35.4191C0.967773 35.5731 1.02895 35.7208 1.13784 35.8297C1.24673 35.9386 1.39442 35.9998 1.54841 35.9998H3.87098C4.02497 35.9998 4.17266 35.9386 4.28155 35.8297C4.39044 35.7208 4.45162 35.5731 4.45162 35.4191C4.45162 34.4571 3.67171 33.6772 2.7097 33.6772ZM9.09674 13.6887C9.03184 13.5813 8.97081 13.4711 8.92363 13.3532L7.5614 9.9476C7.42527 9.60735 7.01191 9.47671 6.70499 9.67696C6.59259 9.7503 6.50906 9.86031 6.46862 9.98828C6.42818 10.1163 6.43331 10.2543 6.48316 10.3789L7.84539 13.7845C8.06462 14.3326 8.53523 14.9575 9.09674 15.3645V13.6887Z" fill="#C38C66"/>
<path d="M7.38383 6.45842C7.18455 6.41156 6.98056 6.38762 6.77584 6.38705H6.77422C5.49151 6.38705 4.45166 7.42691 4.45166 8.70962V18.5805H5.61294V8.70962C5.61301 7.62167 6.374 6.7107 7.38383 6.45842Z" fill="#C38C66"/>
<path d="M17.6984 16.5027C17.8212 15.9601 17.504 15.4104 16.9974 15.1802L15.2372 14.3801L14.2266 16.472L16.0815 17.3152C16.2322 17.384 16.3959 17.4195 16.5615 17.4196C17.0785 17.4196 17.5694 17.0723 17.6984 16.5027Z" fill="#F6D190"/>
<path d="M10.8387 0H8.51617C7.23345 0 6.1936 1.03985 6.1936 2.32256V4.06448C7.47631 4.06448 8.51617 3.02463 8.51617 1.74192H9.09681C10.0588 1.74192 10.8387 0.962016 10.8387 0Z" fill="#ADA7AE"/>
</svg>
