<svg width="24" height="24" viewBox="0 0 24 24" fill="none" xmlns="http://www.w3.org/2000/svg">
<path fill-rule="evenodd" clip-rule="evenodd" d="M6 6V4.5C6 2.01472 8.01472 0 10.5 0H13.5C15.9853 0 18 2.01472 18 4.5V6H21C22.6569 6 24 7.34315 24 9V14.3561C20.2645 15.7421 16.2223 16.4999 12 16.4999C7.77772 16.4999 3.73555 15.7421 0 14.3561V9C0 7.34315 1.34315 6 3 6H6ZM9 4.5C9 3.67157 9.67157 3 10.5 3H13.5C14.3284 3 15 3.67157 15 4.5V6H9V4.5ZM10.5 12C10.5 11.1716 11.1716 10.5 12 10.5H12.015C12.8434 10.5 13.515 11.1716 13.515 12C13.515 12.8284 12.8434 13.5 12.015 13.5H12C11.1716 13.5 10.5 12.8284 10.5 12Z" fill="white"/>
<path d="M0 17.5384V21C0 22.6569 1.34315 24 3 24H21C22.6569 24 24 22.6569 24 21V17.5384C20.2308 18.8107 16.1946 19.4999 12 19.4999C7.80544 19.4999 3.76919 18.8107 0 17.5384Z" fill="white"/>
</svg>
