<svg width="36" height="36" viewBox="0 0 36 36" fill="none" xmlns="http://www.w3.org/2000/svg">
<g clip-path="url(#clip0_41_3858)">
<path d="M31.703 4.23271C26.7242 -0.746107 18.6519 -0.746107 13.6732 4.23271L4.22898 13.6769C-0.74983 18.6557 -0.74983 26.728 4.22898 31.7067C9.2078 36.6855 17.28 36.6855 22.2588 31.7067L31.703 22.2625C36.6818 17.2837 36.6818 9.21152 31.703 4.23271Z" fill="#A8C6E2"/>
<path d="M23.3146 30.6509C18.3358 35.6297 10.2635 35.6297 5.2848 30.6509C0.306057 25.6721 0.305987 17.6001 5.28466 12.6212L4.22898 13.6769C-0.74983 18.6557 -0.74983 26.728 4.22898 31.7067C9.2078 36.6855 17.28 36.6855 22.2588 31.7067L31.703 22.2625L31.7031 22.2623L23.3146 30.6509Z" fill="#8BB2D8"/>
<path d="M15.7263 18.7163L8.95094 11.9409L5.66918 15.2227C1.76695 19.1249 1.53059 25.3045 4.95946 29.4831L15.7263 18.7163Z" fill="#57758D"/>
<path d="M6.80144 14.0905L7.87619 13.0158L5.66918 15.2228C1.76695 19.125 1.53059 25.3046 4.95946 29.4832L6.09165 28.351C2.66285 24.1724 2.89921 17.9928 6.80144 14.0905Z" fill="#4B6276"/>
<path d="M17.2194 20.2094L6.45264 30.9762C10.6311 34.4051 16.8107 34.1687 20.713 30.2665L23.9948 26.9847L17.2194 20.2094Z" fill="#57758D"/>
<path d="M7.61066 29.8182L6.45264 30.9762C10.6311 34.4051 16.8107 34.1687 20.713 30.2665L21.871 29.1085C17.9687 33.0107 11.7892 33.2471 7.61066 29.8182Z" fill="#4B6276"/>
<path d="M30.2499 5.8583C30.2298 5.83539 30.2089 5.81314 30.1873 5.79157C29.8874 5.49165 29.4887 5.35432 29.1065 5.3822C29.0675 5.09065 28.9343 4.80551 28.7063 4.57752C28.3451 4.21629 27.8408 4.09171 27.3943 4.20679C27.3236 4.01962 27.2138 3.84965 27.0723 3.70816C26.6473 3.28316 26.0245 3.18581 25.5308 3.42105C25.4761 3.33577 25.4125 3.25654 25.3411 3.18469C24.8517 2.69535 24.1002 2.64017 23.5856 3.02772C23.5795 3.02146 23.5743 3.0147 23.5681 3.00851C23.0347 2.47504 22.1888 2.45589 21.6789 2.96585C21.6595 2.98528 21.6424 3.00597 21.6245 3.02632C21.0954 2.65051 20.3744 2.6836 19.9199 3.13809C19.8374 3.22121 19.7669 3.31554 19.7106 3.41831C19.2154 3.18969 18.6234 3.26718 18.2305 3.66009C18.0786 3.81203 17.9683 4.00045 17.9102 4.20728C17.4723 4.0948 16.9982 4.20109 16.6662 4.53311C16.4343 4.76497 16.3131 5.0663 16.2986 5.37614C15.9313 5.347 15.5605 5.4668 15.2865 5.74068C15.0372 5.99 14.9153 6.31962 14.9172 6.65368C14.5831 6.65178 14.2534 6.77376 14.0041 7.02308C13.7383 7.28893 13.6176 7.64608 13.6373 8.00267C13.4548 8.06271 13.2841 8.1628 13.1405 8.30639C12.6306 8.81628 12.6497 9.66213 13.1832 10.1956C13.431 10.4434 13.7462 10.5787 14.0638 10.6031C14.0882 10.9207 14.2235 11.2359 14.4713 11.4836C14.7191 11.7314 15.0343 11.8667 15.3519 11.8911C15.3763 12.2087 15.5116 12.5239 15.7594 12.7717C16.0072 13.0194 16.3223 13.1548 16.64 13.1791C16.6644 13.4967 16.7997 13.8119 17.0475 14.0598C17.2953 14.3075 17.6104 14.4429 17.9281 14.4672C17.9525 14.7848 18.0878 15.1 18.3356 15.3478C18.5833 15.5955 18.8253 15.6576 19.1429 15.682C19.1429 15.682 19.1922 16.2045 19.4834 16.4956C19.7879 16.8001 20.2913 16.8304 20.2913 16.8304C20.3157 17.148 20.3834 17.3956 20.6311 17.6434C20.8789 17.8912 21.1941 18.0265 21.5117 18.0509C21.536 18.3685 21.6714 18.6837 21.9192 18.9314C22.1669 19.1792 22.4821 19.3146 22.7998 19.3389C22.8241 19.6565 22.9595 19.9717 23.2073 20.2195C23.455 20.4673 23.7702 20.6027 24.0878 20.627C24.1122 20.9446 24.2475 21.2598 24.4953 21.5076C24.7431 21.7553 25.0583 21.8907 25.3758 21.915C25.4002 22.2326 25.5356 22.5478 25.7833 22.7956C26.3168 23.3291 27.1626 23.3481 27.6725 22.8382C27.8161 22.6947 27.9163 22.524 27.9763 22.3415C28.3328 22.3612 28.69 22.2405 28.9558 21.9747C29.2052 21.7253 29.3271 21.3957 29.3252 21.0616C29.6594 21.0635 29.989 20.9415 30.2382 20.6923C30.5122 20.4183 30.632 20.0474 30.6028 19.6802C30.9126 19.6657 31.214 19.5444 31.4458 19.3125C31.7778 18.9806 31.884 18.5064 31.7716 18.0686C31.9785 18.0104 32.1669 17.9001 32.3188 17.7482C32.7117 17.3553 32.7892 16.7633 32.5606 16.2681C32.6634 16.2118 32.7577 16.1413 32.8408 16.0587C33.2953 15.6042 33.3284 14.8833 32.9526 14.3541C32.9729 14.3362 32.9937 14.3191 33.0131 14.2997C33.523 13.7898 33.5039 12.944 32.9704 12.4105C32.9642 12.4043 32.9575 12.3991 32.9512 12.393C33.3388 11.8784 33.2836 11.1269 32.7942 10.6376C32.7224 10.5661 32.6432 10.5025 32.5579 10.4478C32.7932 9.9541 32.6958 9.33131 32.2708 8.9063C32.1292 8.76485 31.9593 8.65511 31.7721 8.58435C31.8871 8.13795 31.7626 7.63362 31.4014 7.27232C31.1734 7.04433 30.8883 6.91109 30.5967 6.87217C30.6226 6.5179 30.5063 6.14921 30.2499 5.8583Z" fill="white"/>
<path d="M29.3106 21.0073C29.2506 21.1897 29.1505 21.3604 29.0069 21.504C28.497 22.0139 27.6512 21.9948 27.1177 21.4613L14.5175 8.86113C13.984 8.32766 13.9649 7.48181 14.4748 6.97192C14.6184 6.82833 14.7891 6.72824 14.9716 6.6682C14.9526 6.32358 15.066 5.97931 15.3134 5.71655C15.3046 5.72493 15.295 5.73211 15.2863 5.74077C15.037 5.99008 14.9151 6.31971 14.917 6.65384C14.5828 6.65194 14.2532 6.77392 14.0039 7.02323C13.738 7.28909 13.6174 7.64624 13.637 8.00282C13.4546 8.06286 13.2839 8.16295 13.1403 8.30654C12.6304 8.81643 12.6495 9.66228 13.1829 10.1958L25.7831 22.7959C26.3166 23.3294 27.1625 23.3485 27.6724 22.8386C27.8159 22.695 27.9161 22.5243 27.9761 22.3419C28.3327 22.3615 28.6898 22.2409 28.9557 21.975C29.205 21.7257 29.3269 21.3961 29.3251 21.0619C29.6592 21.0638 29.9888 20.9419 30.2381 20.6925C30.2467 20.6839 30.2539 20.6742 30.2623 20.6654C29.9995 20.9129 29.6552 21.0263 29.3106 21.0073Z" fill="#E3EDF6"/>
<path d="M21.8612 29.8914C22.4418 28.8235 21.6611 27.4371 20.4317 27.4521C20.2759 27.7174 20.1191 27.9101 19.8914 28.1378C19.532 28.4976 19.1019 28.779 18.6283 28.9643C18.4429 29.4383 18.1612 29.8687 17.801 30.2283C17.4238 30.6062 16.9688 30.8974 16.4677 31.0817C16.2833 31.5828 15.9921 32.0378 15.6143 32.415C15.2391 32.7908 14.787 33.0809 14.2891 33.2654L14.3513 33.7186C14.5152 34.8653 15.7662 35.5031 16.7905 34.9621C17.5967 35.7953 18.9863 35.5759 19.4966 34.5349L19.5002 34.5355C20.6414 34.7325 21.6334 33.7384 21.434 32.5976C22.475 32.0872 22.6944 30.6976 21.8612 29.8914Z" fill="#00C278"/>
<path d="M19.8913 22.8766L17.7659 25.002L18.5198 28.9694C19.0359 28.7856 19.5045 28.489 19.8913 28.101C21.334 26.6584 21.334 24.3194 19.8913 22.8766Z" fill="#FEE95D"/>
<path d="M15.1886 31.2736C17.2289 31.2736 18.8829 29.6196 18.8829 27.5794C18.8829 25.5391 17.2289 23.8851 15.1886 23.8851C13.1484 23.8851 11.4944 25.5391 11.4944 27.5794C11.4944 29.6196 13.1484 31.2736 15.1886 31.2736Z" fill="#F05475"/>
<path d="M17.8009 30.1915C17.9448 30.0473 18.0766 29.8916 18.195 29.7258C18.1848 28.4099 17.6786 27.0973 16.6746 26.0933C15.6706 25.0894 14.358 24.5832 13.0421 24.573C12.8763 24.6913 12.7206 24.8232 12.5764 24.9671C11.1337 26.4097 11.1337 28.7488 12.5764 30.1915C14.0191 31.6343 16.3581 31.6343 17.8009 30.1915Z" fill="#E21743"/>
<path d="M13.0019 33.4603C15.0421 33.4603 16.6961 31.8064 16.6961 29.7661C16.6961 27.7258 15.0421 26.0719 13.0019 26.0719C10.9616 26.0719 9.30762 27.7258 9.30762 29.7661C9.30762 31.8064 10.9616 33.4603 13.0019 33.4603Z" fill="#F05475"/>
<path d="M11.5537 31.2143C10.3111 29.9718 10.1398 28.0648 11.0375 26.6378C10.803 26.7851 10.5856 26.9582 10.3896 27.1539C8.94695 28.5965 8.94695 30.9356 10.3896 32.3783C11.8323 33.821 14.1713 33.821 15.6141 32.3783C15.8098 32.1824 15.9829 31.965 16.1302 31.7304C14.7032 32.6282 12.7962 32.4569 11.5537 31.2143Z" fill="#E21743"/>
<path d="M13.0018 31.327C13.8639 31.327 14.5628 30.6282 14.5628 29.7661C14.5628 28.904 13.8639 28.2052 13.0018 28.2052C12.1398 28.2052 11.4409 28.904 11.4409 29.7661C11.4409 30.6282 12.1398 31.327 13.0018 31.327Z" fill="#FEE95D"/>
<path d="M12.9994 29.7687C12.5906 29.3599 12.4574 28.781 12.5969 28.2599C12.3327 28.3302 12.0917 28.469 11.8983 28.6624C11.2888 29.272 11.2888 30.2603 11.8983 30.8699C12.5079 31.4794 13.4962 31.4794 14.1058 30.8699C14.2991 30.6765 14.438 30.4355 14.5082 30.1713C13.9872 30.3108 13.4082 30.1776 12.9994 29.7687Z" fill="#E7C900"/>
<path d="M10.0921 13.8627C10.322 13.4658 10.4429 13.0152 10.4424 12.5565C10.4424 11.1137 9.27282 9.94418 7.83008 9.94418C6.38734 9.94418 5.21778 11.1137 5.21778 12.5565C5.21729 13.0152 5.33815 13.4658 5.5681 13.8627C5.33811 14.2595 5.21725 14.7102 5.21778 15.1689C5.21729 15.6275 5.33815 16.0782 5.5681 16.475C5.33811 16.8719 5.21725 17.3226 5.21778 17.7812C5.21729 18.2399 5.33815 18.6905 5.5681 19.0874C5.33811 19.4843 5.21725 19.9349 5.21778 20.3936C5.21729 20.8523 5.33815 21.3029 5.5681 21.6998C5.33811 22.0967 5.21725 22.5473 5.21778 23.006C5.21778 24.4487 6.38734 25.6183 7.83008 25.6183C9.27282 25.6183 10.4424 24.4487 10.4424 23.006C10.4429 22.5473 10.322 22.0967 10.0921 21.6998C10.322 21.3029 10.4429 20.8523 10.4424 20.3936C10.4429 19.9349 10.322 19.4843 10.0921 19.0874C10.322 18.6906 10.4429 18.2399 10.4424 17.7812C10.4429 17.3226 10.322 16.8719 10.0921 16.475C10.322 16.0782 10.4429 15.6275 10.4424 15.1689C10.4429 14.7102 10.322 14.2596 10.0921 13.8627Z" fill="#FCAD42"/>
<path d="M7.2826 23.0058V12.5566C7.2826 11.4805 7.93334 10.5568 8.86253 10.1565C8.53645 10.0161 8.18511 9.94384 7.83008 9.94418C6.38734 9.94418 5.21777 11.1137 5.21777 12.5565V23.0058C5.21777 24.4485 6.38734 25.6181 7.83008 25.6181C8.1968 25.6181 8.54578 25.5422 8.86253 25.4057C7.93334 25.0056 7.2826 24.0819 7.2826 23.0058Z" fill="#E68B00"/>
<path d="M8.81868 9.94418H7.83008V8.95559C7.83008 7.81629 8.75364 6.89273 9.89293 6.89273H10.8815V7.88133C10.8815 9.02063 9.95797 9.94418 8.81868 9.94418Z" fill="#F05475"/>
<path d="M6.84167 9.94418H7.83026V8.95559C7.83026 7.81629 6.9067 6.89273 5.76741 6.89273H4.77881V7.88133C4.77881 9.02063 5.70237 9.94418 6.84167 9.94418Z" fill="#E21743"/>
<path d="M7.83008 11.6348V12.6818M7.83008 13.7552V14.8023" stroke="white" stroke-width="0.5" stroke-miterlimit="10"/>
<path d="M18.3302 33.382C17.2884 33.382 16.3245 33.0508 15.5357 32.4894C15.1765 32.8293 14.7526 33.0932 14.2891 33.2655C14.3321 33.7253 14.4324 34.273 14.7586 34.5961C15.066 34.814 15.3978 34.995 15.7474 35.1356C16.0882 35.1903 16.4517 35.1411 16.7905 34.9621C17.5741 35.7865 19.0056 35.563 19.4966 34.5349C20.6277 34.7394 21.6383 33.7283 21.434 32.5975C21.9868 32.325 22.3013 31.8337 22.3334 31.2521C21.4664 32.537 19.997 33.382 18.3302 33.382Z" fill="#00A666"/>
<path d="M5.28752 12.6819L4.26316 13.7062C-0.715651 18.685 -0.715651 26.7572 4.26316 31.736C6.93297 34.4058 10.4922 35.6439 13.987 35.4505H17.5897M29.6559 2.57508C24.7153 -0.632914 18.04 -0.0705862 13.7074 4.262L10.9791 6.9903M22.1966 31.8324L31.7372 22.2918C36.716 17.313 36.716 9.24081 31.7372 4.26207C31.3732 3.89783 30.9876 3.55576 30.5825 3.23771M24.1154 24.1143L26.9591 26.9579M9.73223 9.73106L23.2511 23.25" stroke="black" stroke-width="0.5" stroke-miterlimit="10"/>
<path d="M5.29579 15.6825C1.78885 19.597 1.68834 25.4844 4.99361 29.5123L15.7604 18.7455L10.2927 13.2778M22.0518 28.9911L24.0289 27.014L17.2536 20.2387L6.48675 31.0055C8.13924 32.3616 10.1047 33.1444 12.1185 33.3539M30.2499 5.8583C30.2297 5.83539 30.2088 5.81314 30.1872 5.79157C29.8873 5.49165 29.4886 5.35432 29.1064 5.3822C29.0675 5.09065 28.9343 4.80551 28.7063 4.57752C28.3451 4.21629 27.8407 4.09171 27.3943 4.20679C27.3235 4.01962 27.2138 3.84965 27.0723 3.70816C26.6473 3.28316 26.0245 3.18581 25.5308 3.42105C25.4761 3.33577 25.4125 3.25654 25.341 3.18469C24.8517 2.69535 24.1002 2.64017 23.5856 3.02772C23.5795 3.02146 23.5743 3.0147 23.5681 3.00851C23.0346 2.47504 22.1888 2.45589 21.6789 2.96585C21.6595 2.98528 21.6424 3.00597 21.6245 3.02632C21.0953 2.65051 20.3744 2.6836 19.9199 3.13809C19.8373 3.22121 19.7669 3.31554 19.7106 3.4183C19.2153 3.18969 18.6234 3.26718 18.2305 3.66009C18.0786 3.81203 17.9683 4.00045 17.9101 4.20728C17.4722 4.0948 16.9982 4.20109 16.6662 4.53311C16.4343 4.76497 16.313 5.0663 16.2986 5.37614C15.9312 5.347 15.5604 5.4668 15.2865 5.74068C15.0372 5.98999 14.9153 6.31962 14.9172 6.65368C14.583 6.65178 14.2534 6.77376 14.0041 7.02308C13.7382 7.28893 13.6176 7.64608 13.6372 8.00266C13.4548 8.06271 13.2841 8.1628 13.1405 8.30639C12.6306 8.81628 12.6497 9.66213 13.1832 10.1956C13.4309 10.4434 13.7461 10.5787 14.0638 10.6031C14.0881 10.9207 14.2235 11.2359 14.4713 11.4836C14.719 11.7314 15.0342 11.8667 15.3519 11.8911C15.3762 12.2087 15.5116 12.5239 15.7594 12.7717C16.0071 13.0194 16.3223 13.1548 16.64 13.1791C16.6643 13.4967 16.7997 13.8119 17.0475 14.0597C17.2952 14.3075 17.6104 14.4429 17.9281 14.4672C17.9524 14.7848 18.0878 15.1 18.3356 15.3478C18.5833 15.5955 18.8252 15.6576 19.1428 15.682C19.1428 15.682 19.1922 16.2045 19.4834 16.4956C19.7879 16.8001 20.2913 16.8304 20.2913 16.8304C20.3156 17.148 20.3833 17.3956 20.6311 17.6434C20.8789 17.8912 21.1941 18.0265 21.5117 18.0509C21.536 18.3685 21.6714 18.6837 21.9191 18.9314C22.1669 19.1792 22.4821 19.3146 22.7998 19.3389C22.8241 19.6565 22.9595 19.9717 23.2072 20.2195C23.455 20.4673 23.7702 20.6027 24.0878 20.627C24.1121 20.9446 24.2475 21.2598 24.4953 21.5076C24.743 21.7553 25.0582 21.8907 25.3758 21.915C25.4002 22.2326 25.5355 22.5478 25.7833 22.7956C26.3168 23.3291 27.1626 23.3481 27.6725 22.8382C27.8161 22.6946 27.9163 22.524 27.9762 22.3415C28.3328 22.3611 28.69 22.2405 28.9558 21.9746C29.2051 21.7253 29.327 21.3957 29.3252 21.0616C29.6593 21.0635 29.989 20.9415 30.2382 20.6923C30.5122 20.4183 30.632 20.0474 30.6027 19.6801C30.9125 19.6656 31.2139 19.5444 31.4458 19.3125C31.7777 18.9806 31.884 18.5064 31.7716 18.0685C31.9784 18.0104 32.1668 17.9001 32.3188 17.7482C32.7117 17.3553 32.7892 16.7633 32.5606 16.2681C32.6633 16.2118 32.7577 16.1413 32.8408 16.0587C33.2953 15.6042 33.3284 14.8833 32.9526 14.3541C32.9729 14.3362 32.9937 14.3191 33.013 14.2997C33.5229 13.7898 33.5039 12.944 32.9704 12.4105C32.9642 12.4043 32.9574 12.3991 32.9512 12.393C33.3387 11.8784 33.2835 11.1269 32.7942 10.6376C32.7224 10.5661 32.6431 10.5025 32.5578 10.4478C32.7931 9.9541 32.6957 9.3313 32.2707 8.9063C32.1292 8.76485 31.9593 8.65511 31.7721 8.58435C31.8871 8.13795 31.7626 7.63362 31.4014 7.27232C31.1734 7.04433 30.8882 6.91109 30.5967 6.87217C30.6225 6.5179 30.5062 6.14921 30.2499 5.8583Z" stroke="black" stroke-width="0.5" stroke-miterlimit="10"/>
<path d="M20.6179 27.4521C21.7645 27.6161 22.4024 28.8671 21.8614 29.8914C22.6945 30.6976 22.4751 32.0872 21.4341 32.5975C21.6334 33.7383 20.6415 34.7325 19.5002 34.5355L19.4967 34.5348C18.9864 35.5759 17.5968 35.7953 16.7906 34.9621C15.7663 35.503 14.5153 34.8652 14.3514 33.7185L14.2844 33.2313" stroke="black" stroke-width="0.5" stroke-miterlimit="10"/>
<path d="M11.7246 26.2376C11.9104 25.7747 12.1883 25.3543 12.5415 25.0021C13.9842 23.5594 16.3233 23.5594 17.766 25.0021C19.2087 26.4448 19.2087 28.7838 17.766 30.2266C17.3792 30.6145 16.9106 30.9112 16.3945 31.0949" stroke="black" stroke-width="0.5" stroke-miterlimit="10"/>
<path d="M18.5198 28.9695C19.0359 28.7857 19.5045 28.489 19.8913 28.1011C21.334 26.6584 21.334 24.3194 19.8913 22.8766L17.7659 25.002" stroke="black" stroke-width="0.5" stroke-miterlimit="10"/>
<path d="M13.0019 33.4603C15.0421 33.4603 16.6961 31.8064 16.6961 29.7661C16.6961 27.7258 15.0421 26.0719 13.0019 26.0719C10.9616 26.0719 9.30762 27.7258 9.30762 29.7661C9.30762 31.8064 10.9616 33.4603 13.0019 33.4603Z" stroke="black" stroke-width="0.5" stroke-miterlimit="10"/>
<path d="M13.0018 31.327C13.8639 31.327 14.5628 30.6282 14.5628 29.7661C14.5628 28.904 13.8639 28.2052 13.0018 28.2052C12.1398 28.2052 11.4409 28.904 11.4409 29.7661C11.4409 30.6282 12.1398 31.327 13.0018 31.327Z" stroke="black" stroke-width="0.5" stroke-miterlimit="10"/>
<path d="M7.83008 9.94418C9.27282 9.94418 10.4424 11.1137 10.4424 12.5565C10.4429 13.0152 10.322 13.4658 10.0921 13.8627C10.322 14.2596 10.4429 14.7102 10.4424 15.1689C10.4429 15.6275 10.322 16.0782 10.0921 16.475C10.322 16.8719 10.4429 17.3226 10.4424 17.7812C10.4429 18.2399 10.322 18.6906 10.0921 19.0874C10.322 19.4843 10.4429 19.9349 10.4424 20.3936C10.4429 20.8523 10.322 21.3029 10.0921 21.6998C10.322 22.0967 10.4429 22.5473 10.4424 23.006C10.4424 24.4487 9.27282 25.6183 7.83008 25.6183C6.38734 25.6183 5.21778 24.4487 5.21778 23.006C5.21725 22.5473 5.33811 22.0967 5.5681 21.6998C5.33815 21.3029 5.21729 20.8523 5.21778 20.3936C5.21725 19.9349 5.33811 19.4843 5.5681 19.0874C5.33815 18.6905 5.21729 18.2399 5.21778 17.7812C5.21725 17.3226 5.33811 16.8719 5.5681 16.475C5.33815 16.0782 5.21729 15.6275 5.21778 15.1689C5.21725 14.7102 5.33811 14.2595 5.5681 13.8627C5.33815 13.4658 5.21729 13.0152 5.21778 12.5565C5.21778 11.1137 6.38734 9.94418 7.83008 9.94418ZM7.83008 9.94418H8.81861C9.9579 9.94418 10.8815 9.02063 10.8815 7.88133V6.89273H9.89286C8.75357 6.89273 7.83001 7.81629 7.83001 8.95559L7.83008 9.94418Z" stroke="black" stroke-width="0.5" stroke-miterlimit="10"/>
<path d="M23.9977 6.07861H22.5045M26.2375 8.31835H24.7442M28.4771 10.5581H26.984M30.7169 12.7978H29.2237M19.5182 10.5581H18.0251M21.758 12.7978H20.2648M23.9977 15.0376H22.5045M26.2375 17.2773H24.7442M28.8504 15.4108V16.904M19.8534 6.4138V7.90694M26.6107 13.1711V14.6642M24.371 10.9314V12.4245M22.1312 8.69162V10.1848M6.84166 9.94417H7.83026V8.95558C7.83026 7.81628 6.9067 6.89272 5.76741 6.89272H4.77881V7.88132C4.77881 9.02061 5.70237 9.94417 6.84166 9.94417Z" stroke="black" stroke-width="0.5" stroke-miterlimit="10"/>
</g>
<defs>
<clipPath id="clip0_41_3858">
<rect width="36" height="36" fill="white"/>
</clipPath>
</defs>
</svg>
