<svg width="14" height="13" viewBox="0 0 14 13" fill="none" xmlns="http://www.w3.org/2000/svg">
<path d="M5.98563 1.56222C6.40069 0.368137 8.0894 0.368136 8.50447 1.56222L9.13482 3.37565C9.31792 3.90242 9.80951 4.25958 10.3671 4.27094L12.2865 4.31005C13.5504 4.33581 14.0723 5.94187 13.0649 6.70561L11.535 7.86549C11.0906 8.20241 10.9028 8.78031 11.0643 9.31409L11.6203 11.1517C11.9864 12.3617 10.6202 13.3543 9.5825 12.6322L8.00662 11.5356C7.54887 11.2171 6.94123 11.2171 6.48348 11.5356L4.9076 12.6322C3.86995 13.3543 2.50375 12.3617 2.86982 11.1517L3.42577 9.31409C3.58726 8.78031 3.39949 8.20241 2.95509 7.86549L1.42519 6.70561C0.417818 5.94187 0.939657 4.33581 2.20356 4.31005L4.12303 4.27094C4.68059 4.25958 5.17218 3.90242 5.35528 3.37565L5.98563 1.56222Z" fill="#FFC554"/>
</svg>
