<svg width="21" height="20" viewBox="0 0 21 20" fill="none" xmlns="http://www.w3.org/2000/svg">
<path d="M6.89534 10C6.89534 10.9205 6.14915 11.6667 5.22868 11.6667C4.3082 11.6667 3.56201 10.9205 3.56201 10C3.56201 9.07954 4.3082 8.33334 5.22868 8.33334C6.14915 8.33334 6.89534 9.07954 6.89534 10Z" fill="#6F767E"/>
<path d="M11.8953 10C11.8953 10.9205 11.1492 11.6667 10.2287 11.6667C9.3082 11.6667 8.56201 10.9205 8.56201 10C8.56201 9.07954 9.3082 8.33334 10.2287 8.33334C11.1492 8.33334 11.8953 9.07954 11.8953 10Z" fill="#6F767E"/>
<path d="M16.8953 10C16.8953 10.9205 16.1492 11.6667 15.2287 11.6667C14.3082 11.6667 13.562 10.9205 13.562 10C13.562 9.07954 14.3082 8.33334 15.2287 8.33334C16.1492 8.33334 16.8953 9.07954 16.8953 10Z" fill="#6F767E"/>
</svg>
