<svg width="6" height="21" viewBox="0 0 6 21" fill="none" xmlns="http://www.w3.org/2000/svg">
<path d="M3.0001 5.6999C1.67461 5.6999 0.600098 4.62539 0.600098 3.2999C0.600098 1.97442 1.67461 0.899902 3.0001 0.899902C4.32558 0.899902 5.4001 1.97442 5.4001 3.2999C5.4001 4.62539 4.32558 5.6999 3.0001 5.6999Z" fill="#111827"/>
<path d="M3.0001 12.8999C1.67461 12.8999 0.600098 11.8254 0.600098 10.4999C0.600098 9.17442 1.67461 8.0999 3.0001 8.0999C4.32558 8.0999 5.4001 9.17442 5.4001 10.4999C5.4001 11.8254 4.32558 12.8999 3.0001 12.8999Z" fill="#111827"/>
<path d="M3.0001 20.0999C1.67461 20.0999 0.600098 19.0254 0.600098 17.6999C0.600098 16.3744 1.67461 15.2999 3.0001 15.2999C4.32558 15.2999 5.4001 16.3744 5.4001 17.6999C5.4001 19.0254 4.32558 20.0999 3.0001 20.0999Z" fill="#111827"/>
</svg>
