<svg width="36" height="36" viewBox="0 0 36 36" fill="none" xmlns="http://www.w3.org/2000/svg">
<g clip-path="url(#clip0_39_3341)">
<path fill-rule="evenodd" clip-rule="evenodd" d="M6.89662 27.6631L23.7923 3.71737C24.4876 2.73194 25.3558 1.78005 26.5441 1.43742C27.5596 1.14457 28.5875 1.34123 29.4683 1.9102C30.3155 2.45759 30.9303 3.27729 31.1177 4.28107C31.3544 5.5493 30.9225 6.83953 30.1852 7.85175L17.1463 25.7533C16.6252 26.4687 16.29 27.424 16.4314 28.3245C16.5235 28.9112 16.8411 29.4382 17.3636 29.7348C17.8603 30.0167 18.4396 30.0339 18.975 29.8565C19.7999 29.5832 20.4556 28.8942 20.9184 28.1835C21.1521 27.8245 21.5744 27.678 21.9505 27.9229L22.049 27.987C22.4251 28.2319 22.462 28.6774 22.2283 29.0363C21.5643 30.0561 20.6417 30.951 19.4665 31.3402C18.5121 31.6564 17.4727 31.594 16.5921 31.0942C15.6554 30.5625 15.0532 29.6241 14.8873 28.5669C14.6834 27.2683 15.0787 25.9406 15.8369 24.8996L28.8759 6.99802C29.7775 5.76016 30.087 4.17089 28.62 3.22308C27.1823 2.29418 25.9588 3.35583 25.1052 4.56562L8.20949 28.5114C7.98006 28.8366 7.54448 28.9422 7.21021 28.7263L7.11142 28.6624C6.77716 28.4465 6.66712 27.9884 6.89662 27.6631Z" fill="#8192A5"/>
<path fill-rule="evenodd" clip-rule="evenodd" d="M6.89472 26.0786L9.44116 27.9208C9.60485 28.0392 9.64183 28.27 9.52343 28.4337L8.08835 30.4173C7.96994 30.581 7.73911 30.618 7.57549 30.4996L5.02905 28.6574C4.86536 28.539 4.82838 28.3082 4.94679 28.1445L6.38186 26.1608C6.5002 25.9972 6.73104 25.9602 6.89472 26.0786Z" fill="#7789A4"/>
<path fill-rule="evenodd" clip-rule="evenodd" d="M6.8948 26.0786L9.44124 27.9208C9.60492 28.0392 9.64191 28.27 9.5235 28.4337L8.08842 30.4173C7.97002 30.581 7.73918 30.618 7.57556 30.4996L7.4116 30.381L8.82038 28.4336C8.93878 28.2699 8.90173 28.0391 8.73811 27.9207L6.35571 26.1971L6.38201 26.1608C6.50028 25.9972 6.73111 25.9602 6.8948 26.0786Z" fill="#65788E"/>
<path fill-rule="evenodd" clip-rule="evenodd" d="M10.1098 33.5772L10.7436 31.9949C10.9595 31.4559 10.7867 30.8586 10.3163 30.5183L4.15367 26.0599C3.68328 25.7196 3.06186 25.7423 2.61756 26.116L1.31298 27.213C1.24442 27.2707 1.20962 27.3492 1.21285 27.4387C1.21616 27.5283 1.25652 27.6039 1.32915 27.6564L9.68361 33.7005C9.75624 33.753 9.84076 33.7677 9.92682 33.7428C10.013 33.7179 10.0765 33.6604 10.1098 33.5772Z" fill="#8D9CA8"/>
<path fill-rule="evenodd" clip-rule="evenodd" d="M10.11 33.5772L10.7438 31.9949C10.9597 31.4559 10.7869 30.8586 10.3165 30.5183L9.68633 30.0625C10.101 30.4097 10.245 30.972 10.0406 31.4821L9.40684 33.0644C9.37351 33.1476 9.30995 33.2051 9.22382 33.2301C9.13775 33.255 9.05324 33.2403 8.98061 33.1878L1.29468 27.6273C1.30522 27.6377 1.31683 27.6474 1.32934 27.6565L9.6838 33.7006C9.75644 33.7531 9.84095 33.7678 9.92701 33.7429C10.0131 33.7179 10.0767 33.6604 10.11 33.5772Z" fill="#8192A5"/>
<path fill-rule="evenodd" clip-rule="evenodd" d="M32.022 20.7138C23.5464 21.1274 16.8007 26.7225 16.5715 33.631C16.5682 33.7297 16.6016 33.8159 16.6703 33.887C16.7391 33.9581 16.8241 33.9942 16.9231 33.9942H33.0298V21.6738C33.0298 21.4009 32.9292 21.1661 32.7315 20.9779C32.534 20.7898 32.2945 20.7006 32.022 20.7138Z" fill="#FE646F"/>
<path fill-rule="evenodd" clip-rule="evenodd" d="M32.0218 20.7138C31.8804 20.7207 31.7395 20.7292 31.5991 20.739C31.7578 20.7774 31.9016 20.8574 32.0282 20.9779C32.2258 21.166 32.3265 21.4009 32.3265 21.6738V33.9942H33.0296V21.6738C33.0296 21.4009 32.9289 21.1661 32.7313 20.9779C32.5338 20.7898 32.2943 20.7006 32.0218 20.7138Z" fill="#FD4755"/>
<path d="M31.5384 34.6973C33.3326 34.6973 34.7871 33.2429 34.7871 31.4487C34.7871 29.6545 33.3326 28.2 31.5384 28.2C29.7443 28.2 28.2898 29.6545 28.2898 31.4487C28.2898 33.2429 29.7443 34.6973 31.5384 34.6973Z" fill="#837683"/>
<path fill-rule="evenodd" clip-rule="evenodd" d="M31.5386 28.2001C33.3327 28.2001 34.7872 29.6546 34.7872 31.4488C34.7872 33.2429 33.3327 34.6974 31.5386 34.6974C31.4197 34.6974 31.3025 34.6909 31.187 34.6784C32.8158 34.5031 34.0841 33.1242 34.0841 31.4488C34.0841 29.7734 32.8158 28.3944 31.187 28.2191C31.3025 28.2066 31.4197 28.2001 31.5386 28.2001Z" fill="#685E68"/>
<path d="M31.5384 32.9399C32.362 32.9399 33.0296 32.2723 33.0296 31.4487C33.0296 30.6251 32.362 29.9574 31.5384 29.9574C30.7148 29.9574 30.0471 30.6251 30.0471 31.4487C30.0471 32.2723 30.7148 32.9399 31.5384 32.9399Z" fill="#ECEFF1"/>
<path fill-rule="evenodd" clip-rule="evenodd" d="M31.5384 29.9574C31.6595 29.9574 31.7772 29.972 31.8899 29.9992C31.236 30.1573 30.7502 30.7462 30.7502 31.4486C30.7502 32.1511 31.236 32.74 31.8899 32.8981C31.7748 32.9259 31.6568 32.9399 31.5384 32.9399C30.7148 32.9399 30.0471 32.2722 30.0471 31.4486C30.0471 30.6251 30.7148 29.9574 31.5384 29.9574Z" fill="#D1D1D6"/>
<path fill-rule="evenodd" clip-rule="evenodd" d="M31.6264 32.3767C31.1144 32.3767 30.6975 31.9603 30.6975 31.4477C30.6975 30.936 31.1145 30.5197 31.6264 30.5197C32.1384 30.5197 32.555 30.936 32.555 31.4477C32.555 31.9603 32.1384 32.3767 31.6264 32.3767ZM31.6264 29.3948C30.4936 29.3948 29.5725 30.3158 29.5725 31.4477C29.5725 32.5806 30.4936 33.5016 31.6264 33.5016C32.7583 33.5016 33.68 32.5806 33.68 31.4477C33.68 30.3159 32.7583 29.3948 31.6264 29.3948ZM31.6264 34.1343C33.1071 34.1343 34.3124 32.9293 34.3124 31.4487C34.3124 29.967 33.1071 28.762 31.6264 28.762C30.1447 28.762 28.9404 29.9671 28.9404 31.4487C28.9404 32.9294 30.1447 34.1343 31.6264 34.1343ZM32.1368 21.2749C24.0046 21.6724 17.5845 26.9613 17.2313 33.4314H28.3731C28.0076 32.8347 27.8146 32.1484 27.8155 31.4487C27.8155 29.3468 29.5249 27.6368 31.6264 27.6368C31.9461 27.6368 32.2579 27.6778 32.555 27.7523V21.6737C32.555 21.5535 32.518 21.4678 32.4313 21.3848C32.3456 21.3034 32.2549 21.2696 32.1368 21.2749ZM15.5306 28.4794C15.3595 27.3902 15.6689 26.2054 16.3792 25.2301L29.4187 7.32854C30.1127 6.37503 30.405 5.36767 30.2427 4.49157C30.1117 3.78768 29.6864 3.18496 29.0129 2.74979C28.1846 2.21563 26.5281 1.69736 24.7337 4.24105L8.85791 26.7406L8.50409 26.4844L24.3399 4.0415C24.8562 3.30941 25.6716 2.29902 26.7876 1.97706C27.6186 1.73807 28.4702 1.87813 29.2506 2.38213C30.0052 2.86925 30.5029 3.58018 30.6525 4.38407C30.8405 5.3908 30.5367 6.53394 29.8181 7.51979L16.7792 25.4214C16.1071 26.3444 15.8102 27.4336 15.9634 28.4112C16.0627 29.0417 16.3665 29.5907 16.8163 29.9733C16.7626 30.1182 16.7117 30.264 16.6634 30.4108C16.0621 29.9601 15.6556 29.273 15.5306 28.4794ZM6.5376 27.0265L8.76791 28.6396L9.04128 28.262L6.81097 26.6482L6.5376 27.0265ZM10.3098 31.7853C10.4286 31.4878 10.3343 31.1617 10.0748 30.9731L3.91213 26.5155C3.65267 26.3278 3.31278 26.3397 3.06753 26.5463L2.0383 27.4111L9.80973 33.0333L10.3098 31.7853ZM33.68 28.2401V21.6737C33.68 21.2461 33.5165 20.8645 33.2071 20.57C32.8976 20.2751 32.5094 20.1318 32.0821 20.1516C27.7761 20.3618 23.7626 21.8819 20.7821 24.4309C19.2689 25.7252 18.0961 27.2214 17.3015 28.8414C17.1882 28.669 17.1112 28.4651 17.075 28.2368C16.9692 27.5617 17.1982 26.7574 17.6889 26.0836L30.7279 8.18242C31.6271 6.94766 32.0034 5.48783 31.7585 4.17728C31.5513 3.0669 30.8775 2.09392 29.8614 1.43727C28.8146 0.760793 27.6123 0.568839 26.4762 0.896496C25.02 1.31612 24.0347 2.52212 23.4202 3.39252L7.59235 25.8248L7.31237 25.6226C7.21358 25.5506 7.10146 25.499 6.98253 25.4708C6.86361 25.4425 6.74025 25.4382 6.61965 25.4581C6.499 25.477 6.38331 25.5197 6.27929 25.5837C6.17527 25.6476 6.08499 25.7316 6.0137 25.8308L5.62613 26.3669L4.57173 25.6034C4.24448 25.3663 3.84731 25.2456 3.44348 25.2604C3.03966 25.2752 2.6524 25.4247 2.34338 25.6851L0.76276 27.0139C0.697416 27.069 0.645467 27.1383 0.610837 27.2165C0.576207 27.2948 0.559802 27.3798 0.562861 27.4653C0.566151 27.5507 0.588767 27.6342 0.629006 27.7096C0.669245 27.785 0.72606 27.8502 0.795174 27.9005L9.73386 34.3673C9.82992 34.4366 9.94538 34.4739 10.0638 34.4739C10.1762 34.4738 10.286 34.4401 10.3791 34.3771C10.4721 34.3141 10.5442 34.2247 10.586 34.1204L11.3539 32.2036C11.5045 31.8286 11.5253 31.414 11.4129 31.0258C11.3005 30.6377 11.0614 30.2984 10.7336 30.062L9.67888 29.2992L10.0671 28.7627C10.2127 28.5621 10.2703 28.3163 10.2309 28.0707C10.2119 27.95 10.1692 27.8344 10.1053 27.7304C10.0413 27.6263 9.95735 27.536 9.85824 27.4647L9.76951 27.3999L25.6528 4.8894C27.0927 2.84844 28.0439 3.46368 28.4026 3.695C28.8216 3.96543 29.0616 4.29301 29.1367 4.69745C29.2406 5.25777 29.0122 5.97594 28.5088 6.66627L15.47 24.5678C14.5853 25.7828 14.2024 27.2721 14.4195 28.6535C14.6134 29.8925 15.318 30.9459 16.3539 31.5539C16.1791 32.3554 16.0909 33.1734 16.0908 33.9937C16.0908 34.0676 16.1054 34.1408 16.1336 34.209C16.1619 34.2773 16.2033 34.3393 16.2556 34.3916C16.3078 34.4438 16.3699 34.4853 16.4381 34.5135C16.5064 34.5418 16.5796 34.5564 16.6535 34.5564H29.4249C30.0471 34.9988 30.8067 35.2596 31.6264 35.2596C33.728 35.2596 35.4374 33.5496 35.4374 31.4487C35.4374 30.1027 34.7357 28.9189 33.68 28.2401Z" fill="#242222"/>
</g>
<defs>
<clipPath id="clip0_39_3341">
<rect width="36" height="36" fill="white"/>
</clipPath>
</defs>
</svg>
